<svg xmlns="http://www.w3.org/2000/svg" viewBox="0 0 123.78 27.62"><title>Asset 1</title><g id="Layer_2" data-name="Layer 2"><g id="Express"><g id="original-wordmark"><path d="M38.4,27.62V.54h1.47V4.8a5.57,5.57,0,0,0,.48-.6A7.28,7.28,0,0,1,47,.08c3.35-.1,6.07,1.14,7.67,4.12A13.24,13.24,0,0,1,55,16.34c-1.49,3.34-5.17,5-9.11,4.39A7.37,7.37,0,0,1,40,16.85V27.62Zm1.47-17.5c.13,1.32.18,2.26.33,3.18.58,3.62,2.72,5.77,6.08,6.16a6.91,6.91,0,0,0,7.59-4.39,11.77,11.77,0,0,0-.26-9.68,6.77,6.77,0,0,0-7.13-3.94,6.59,6.59,0,0,0-5.89,4.87A33.4,33.4,0,0,0,39.87,10.12Z"/><path d="M86.28,13.8a7.92,7.92,0,0,1-7.74,7c-6.16.31-9.05-3.78-9.51-8.5a13.62,13.62,0,0,1,1.2-7.5A8.37,8.37,0,0,1,78.94.13,8,8,0,0,1,86,6.22a41.09,41.09,0,0,1,.69,4.5H70.54c-.3,4.28,2,7.72,5.26,8.55,4.06,1,7.53-.76,8.79-4.62C84.87,13.66,85.38,13.52,86.28,13.8ZM70.54,9.35H85c-.09-4.56-2.93-7.86-6.78-7.91C73.87,1.37,70.73,4.55,70.54,9.35Z"/><path d="M89.26,13.9h1.42A5.69,5.69,0,0,0,94,18.8a8.73,8.73,0,0,0,7.58-.2,3.41,3.41,0,0,0,2-3.35,3.09,3.09,0,0,0-2.08-3.09c-1.56-.58-3.22-.9-4.81-1.41A35.25,35.25,0,0,1,91.87,9c-2.56-1.25-2.72-6.12.18-7.66a10.21,10.21,0,0,1,9.76-.15,5.14,5.14,0,0,1,2.6,5.24h-1.22c0-.06-.11-.11-.11-.17-.15-3.89-3.41-5.09-6.91-4.75a9.17,9.17,0,0,0-3,.91,3,3,0,0,0-1.74,3,3,3,0,0,0,2,2.82c1.54.56,3.15.92,4.73,1.36,1.27.35,2.59.58,3.82,1a4.51,4.51,0,0,1,3.1,4.07,4.81,4.81,0,0,1-2.59,5c-3.34,1.89-8.84,1.39-11.29-1A6.67,6.67,0,0,1,89.26,13.9Z"/><path d="M123.08,6.41h-1.33a3.3,3.3,0,0,0-.09-.49,4.35,4.35,0,0,0-3.54-4.18,8.73,8.73,0,0,0-5.61.27A3.41,3.41,0,0,0,110,5.26a3.14,3.14,0,0,0,2.4,3.16c2,.62,4.05,1,6.08,1.56a17,17,0,0,1,1.94.59,5,5,0,0,1,.27,9.31,11.13,11.13,0,0,1-9,.09A6.24,6.24,0,0,1,108,13.91h1.3a7.29,7.29,0,0,0,11.1,4.64,3.57,3.57,0,0,0,1.92-3.34,3.09,3.09,0,0,0-2.11-3.07c-1.56-.58-3.22-.89-4.81-1.4A35.43,35.43,0,0,1,110.5,9c-2.5-1.23-2.7-6.06.15-7.6a10.07,10.07,0,0,1,9.92-.11A5.23,5.23,0,0,1,123.08,6.41Z"/><path d="M36,20.31a2.29,2.29,0,0,1-2.84-1.08C31.5,16.79,29.7,14.46,28,12.08l-.75-1c-2.06,2.76-4.12,5.41-6,8.16a2.2,2.2,0,0,1-2.7,1.06L26.25,9.93,19.06.56a2.39,2.39,0,0,1,2.85,1C23.58,4,25.43,6.33,27.27,8.8,29.12,6.35,30.95,4,32.66,1.59a2.15,2.15,0,0,1,2.68-1l-2.79,3.7C31.3,5.94,30.07,7.6,28.77,9.21a1,1,0,0,0-.08,1.41l.08.08C31.16,13.87,33.53,17.05,36,20.31Z"/><path d="M68.79.46v1.4a7.25,7.25,0,0,0-7.72,7.49v11H59.64V.54H61V4.6C62.77,1.64,65.44.54,68.79.46Z"/><path d="M0,9.8c.21-1,.34-2.09.63-3.11C2.36.54,9.41-2,14.26,1.79c2.84,2.23,3.55,5.39,3.41,9h-16C1.41,17.1,6,20.94,11.87,19a6.09,6.09,0,0,0,3.87-4.31c.31-1,.81-1.17,1.76-.88a8.12,8.12,0,0,1-3.88,5.93,9.4,9.4,0,0,1-10.95-1.4A9.85,9.85,0,0,1,.21,12.54a4.79,4.79,0,0,0-.2-1Q0,10.65,0,9.8Zm1.69-.43H16.16c-.09-4.61-3-7.88-6.88-7.91C5,1.4,1.87,4.6,1.68,9.35Z"/></g></g></g></svg>