<svg xmlns="http://www.w3.org/2000/svg" viewBox="0 0 342.33 337.7"><defs><style>.cls-1{fill:#231f20;}.cls-2{fill:none;stroke:#231f20;stroke-miterlimit:10;}.cls-3,.cls-4{font-size:117.72px;font-family:AvenirNext-UltraLight, Avenir Next;}.cls-3{fill:#e02e92;}.cls-4,.cls-5{fill:#f15a29;}</style></defs><title>Asset 1</title><g id="Layer_2" data-name="Layer 2"><g id="Layer_1-2" data-name="Layer 1"><path class="cls-1" d="M341.83,168.85c0,9.87-8.8,18.86-10.45,28.26-1.69,9.67,3.48,21.11.2,30.13-3.34,9.18-14.69,14.61-19.52,23s-3.94,21-10.16,28.36-18.75,8.67-26.18,14.91-10.79,18.34-19.21,23.21-20.52,1.73-29.7,5.07c-9,3.28-16.34,13.51-26,15.2-9.4,1.65-19.76-5.43-29.64-5.43s-20.24,7.08-29.64,5.43c-9.67-1.69-17-11.92-26-15.2-9.18-3.34-21.35-.25-29.7-5.07s-11.8-17-19.21-23.21S46.67,286,40.43,278.55s-5.29-19.94-10.16-28.36-16.17-13.78-19.52-23c-3.28-9,1.89-20.46.2-30.13C9.3,187.71.5,178.72.5,168.85S9.3,150,10.95,140.59c1.69-9.67-3.48-21.11-.2-30.13,3.34-9.18,14.69-14.61,19.52-23s3.94-21,10.16-28.36,18.75-8.67,26.18-14.91S77.4,25.9,85.82,21s20.52-1.73,29.7-5.07c9-3.28,16.34-13.51,26-15.2,9.4-1.65,19.76,5.43,29.64,5.43S191.4-.9,200.81.75c9.67,1.69,17,11.92,26,15.2,9.18,3.34,21.35.25,29.7,5.07s11.8,17,19.21,23.21,19.94,7.48,26.18,14.91,5.29,19.94,10.16,28.36,16.17,13.78,19.52,23c3.28,9-1.89,20.46-.2,30.13C333,150,341.83,159,341.83,168.85Z"/><path class="cls-2" d="M341.83,168.85c0,9.87-8.8,18.86-10.45,28.26-1.69,9.67,3.48,21.11.2,30.13-3.34,9.18-14.69,14.61-19.52,23s-3.94,21-10.16,28.36-18.75,8.67-26.18,14.91-10.79,18.34-19.21,23.21-20.52,1.73-29.7,5.07c-9,3.28-16.34,13.51-26,15.2-9.4,1.65-19.76-5.43-29.64-5.43s-20.24,7.08-29.64,5.43c-9.67-1.69-17-11.92-26-15.2-9.18-3.34-21.35-.25-29.7-5.07s-11.8-17-19.21-23.21S46.67,286,40.43,278.55s-5.29-19.94-10.16-28.36-16.17-13.78-19.52-23c-3.28-9,1.89-20.46.2-30.13C9.3,187.71.5,178.72.5,168.85S9.3,150,10.95,140.59c1.69-9.67-3.48-21.11-.2-30.13,3.34-9.18,14.69-14.61,19.52-23s3.94-21,10.16-28.36,18.75-8.67,26.18-14.91S77.4,25.9,85.82,21s20.52-1.73,29.7-5.07c9-3.28,16.34-13.51,26-15.2,9.4-1.65,19.76,5.43,29.64,5.43S191.4-.9,200.81.75c9.67,1.69,17,11.92,26,15.2,9.18,3.34,21.35.25,29.7,5.07s11.8,17,19.21,23.21,19.94,7.48,26.18,14.91,5.29,19.94,10.16,28.36,16.17,13.78,19.52,23c3.28,9-1.89,20.46-.2,30.13C333,150,341.83,159,341.83,168.85Z"/><text class="cls-3" transform="translate(77.37 200.45) scale(0.5 1)">SiteSpy</text><text class="cls-4" transform="translate(74.37 197.45) scale(0.5 1)">SiteSpy</text><path class="cls-5" d="M317.53,167.78c0,1.36.79.87.94,1.07C318.23,166.57,317.32,167.84,317.53,167.78Z"/><polygon class="cls-5" points="313.8 145.76 314.21 146.1 312.81 143.03 313.8 145.76"/><path class="cls-5" d="M309.09,125.63c-.39,1.15.16,2.92.9,4.88a23,23,0,0,1,1.72,6l-.18.66,1.5,1.38c-.62-2.17-1.35-4.65-2.16-6.93A38.68,38.68,0,0,1,309.09,125.63Z"/><path class="cls-5" d="M308.23,114.1c-.26.85-1.34-2.09.8,2.51,0-.26,0-.34,0-.49C308.81,115.69,308.58,115.11,308.23,114.1Z"/><path class="cls-5" d="M309,116.12c.85,2.06-.1-1.52,0,0Z"/><path class="cls-5" d="M304.69,106.79l1.66,2.47c0-.69-1-3.11-.35-2.32C304.51,104.29,304.48,105,304.69,106.79Z"/><path class="cls-5" d="M302.58,104.73c.3.41.58.83.85,1.26C303.44,105.7,303.32,105.31,302.58,104.73Z"/><path class="cls-5" d="M305.14,108.73,303.42,106c0,.48-.44.72.75,1.27C303.68,107.21,304.31,107.61,305.14,108.73Z"/><path class="cls-5" d="M305.69,110.47c.41,1.61,1,3.64-.58,1.14,1.16,2.51,1.83,3.52,2,3.23a2.68,2.68,0,0,0-.2-1.35A17.25,17.25,0,0,0,305.69,110.47Z"/><path class="cls-5" d="M307.35,125.08c.1.72.2,1.43.24,2.15l1,1.63a10.36,10.36,0,0,1-.61-2.31C307.76,125.68,307.53,125,307.35,125.08Z"/><path class="cls-5" d="M296.62,90.4c-.36,0-.15,1.26-.37,1.65.5.54.95,1.1,1.41,1.67C297.32,92.62,296.32,90.76,296.62,90.4Z"/><path class="cls-5" d="M296.25,92l-2.18-2.43C295.57,92.06,296.07,92.37,296.25,92Z"/><path class="cls-5" d="M300.92,105c1.16,1.37,2.13,2.84,3.21,4.28-1.2-1.75-2.36-3.5-3.68-5.16Z"/><path class="cls-5" d="M289.66,80.13c.56.35,1.09.72,1.64,1.08l-1.38-1-1.44-1Z"/><path class="cls-5" d="M284.43,73.78c1.34.66-.47-2.05.75-1.19a25,25,0,0,0-4.67-3.74A18,18,0,0,1,284.43,73.78Z"/><path class="cls-5" d="M278,67.21c.73.56,1.56,1.07,2.47,1.64A15.29,15.29,0,0,0,278,67.21Z"/><path class="cls-5" d="M291.15,85a4.18,4.18,0,0,0-.76-2.57l0,1.53Z"/><path class="cls-5" d="M290.43,84v-.05l-1.55-2.25Z"/><path class="cls-5" d="M291.33,85.25l-.18-.26C291.15,85.13,291.17,85.21,291.33,85.25Z"/><path class="cls-5" d="M297.69,97.25c-1.35-1.4-3.72-4.49-2.48-.87C296.38,97.24,295.66,95.16,297.69,97.25Z"/><path class="cls-5" d="M291.36,87.13c.6,1,1.12,2,1.69,2.94.15-.18.1-.87.8-.22C293,88.94,292.22,88,291.36,87.13Z"/><polygon class="cls-5" points="290.18 85.93 291.36 87.13 290.69 86.06 290.18 85.93"/><path class="cls-5" d="M281.42,72.08a13.75,13.75,0,0,1-1.78-1.53c-.6-.56-1.21-1.16-1.86-1.8L279.65,71c.61.77,1.24,1.53,1.87,2.25C281.9,73.32,282.82,73.65,281.42,72.08Z"/><path class="cls-5" d="M285.89,77.81l-.24-.23C285.72,77.78,285.8,77.92,285.89,77.81Z"/><path class="cls-5" d="M264.76,56.45l.12.31.15-.07Z"/><path class="cls-5" d="M281.61,73.64a7,7,0,0,0,2.31,2.2c-.78-.77-1.58-1.61-2.4-2.55C281.35,73.28,281.27,73.32,281.61,73.64Z"/><path class="cls-5" d="M274.24,63.89,275.71,66C275.4,65.28,274.6,63.91,274.24,63.89Z"/><path class="cls-5" d="M285.53,77l.17.15C285.54,76.7,285.51,76.8,285.53,77Z"/><path class="cls-5" d="M285.53,77a12.39,12.39,0,0,0-1.61-1.2c.61.66,1.19,1.25,1.73,1.74A2.37,2.37,0,0,1,285.53,77Z"/><path class="cls-5" d="M257.16,57.41c.34-.24,1.35.08,2.54.78a10.42,10.42,0,0,1,3.45,3.23c2.78,1.62,3-1.67,1.73-4.66-.31.22-.47.39-3.4-1.3.72,1,5,5.52,2.43,4.23a13.28,13.28,0,0,1-2.82-2.39,13.58,13.58,0,0,0-1.18-1.76c.41.95-.91.37-2.34-.22s-3-1.11-3.05-.26c1.14.57,2.22,1.24,3.32,1.88C257.76,57.16,256.46,56.6,257.16,57.41Z"/><path class="cls-5" d="M269.66,61l1.07.88a32.73,32.73,0,0,1-2.86-4c-2-1.23-2.56-1.31-2.85-1.22,1.69,1.53,3.42,3,5.06,4.58Z"/><path class="cls-5" d="M275.2,66.24c-1.33-.21-4-2.17-3.2-.13a9.69,9.69,0,0,0,2.56,2,5.59,5.59,0,0,1,1.86,1c-4.65-4.57,1.64,1-1.27-2.73,1,.83,1.83,1.64,2.61,2.41-.74-.93-1.43-1.84-2.06-2.73l.07.15,0,0h0c.12.28.14.39,0,.12l-.11-.09a.84.84,0,0,1-.44,0c-1.19-1.5,0-.37.44,0,0,0,.11,0,.15,0v0c-.8-.75-1.65-1.45-2.5-2.15l-2.54-2.1C271.64,63,273,64.11,275.2,66.24Z"/><path class="cls-5" d="M291.86,94.39c0-.21,0-.23.06-.28C291.61,93.82,291.47,93.73,291.86,94.39Z"/><path class="cls-5" d="M290.88,91.9a4.75,4.75,0,0,1,1.6,1.79c.49,1.24-.35.21-.56.42.69.64,2.22,2.39,1.06-.27l-.35-.32c-1.14-2.33-2.06-5.75-1.71-5.43A9.05,9.05,0,0,0,290.88,91.9Z"/><path class="cls-5" d="M283.48,78.74c-1.19-1.35-2.5-2.59-3.78-3.86l1.22,2.55.25-.39C283,79.49,283,78.67,283.48,78.74Z"/><path class="cls-5" d="M264.56,55.71l1.13-.22c-1.06-.39-2.2-.67-3.29-1Z"/><path class="cls-5" d="M258.89,51.38l.68-.47c-.59-.26-1.21-.48-1.82-.72Z"/><path class="cls-5" d="M53.48,238.53l.94,1.19A12.09,12.09,0,0,0,53.48,238.53Z"/><path class="cls-5" d="M48.34,228.93l-.47-.07C48.29,229.22,48.53,229.33,48.34,228.93Z"/><path class="cls-5" d="M94.08,44.27c-2.36.63-5.23,1.12-4.5,1.7l1.09.33A14.45,14.45,0,0,1,94.08,44.27Z"/><path class="cls-5" d="M32.59,141l.37-.6-.47-1.66C32.53,139.47,32.52,140.23,32.59,141Z"/><path class="cls-5" d="M35.84,143.28l-1.06,2.77A20.17,20.17,0,0,0,35.84,143.28Z"/><path class="cls-5" d="M94.36,280.9c.64.1,1.27.19,1.93.25C94,279.63,94.79,280.65,94.36,280.9Z"/><path class="cls-5" d="M192,24.07a36.34,36.34,0,0,0-5-1.16C189.41,23.72,191.25,24.71,192,24.07Z"/><path class="cls-5" d="M43.28,239.26c.63.78,1,1.05,1.14.93C43.79,239.39,43.36,239,43.28,239.26Z"/><path class="cls-5" d="M181.19,22.43c.35.11.7.18,1.05.28a27.33,27.33,0,0,1,4.79.2A11.17,11.17,0,0,0,181.19,22.43Z"/><path class="cls-5" d="M284.4,245.23c.12-.11.23-.26.35-.35C284.68,244.77,284.56,245,284.4,245.23Z"/><path class="cls-5" d="M315.17,188.22c0,.66-.16,1.73-.28,2.73A14.93,14.93,0,0,0,315.17,188.22Z"/><path class="cls-5" d="M234.52,36.2c1.39.61.26,0,0,0Z"/><path class="cls-5" d="M239.46,42.57c-.33-.06-.6-.06-.73.1A1,1,0,0,1,239.46,42.57Z"/><path class="cls-5" d="M166.3,27.58h-.13C166.61,27.74,166.54,27.71,166.3,27.58Z"/><path class="cls-5" d="M236.38,37.58a18.82,18.82,0,0,0-1.61-1.11C235,36.67,235.51,37,236.38,37.58Z"/><path class="cls-5" d="M236.29,37.07l1.14.68C237.67,37.71,237.56,37.55,236.29,37.07Z"/><path class="cls-5" d="M232.57,35.37c.8.35,1.52.72,2.2,1.09-.25-.18-.34-.27-.25-.26Z"/><path class="cls-5" d="M189.4,306.52l.32,0C191.1,306,190.48,306.16,189.4,306.52Z"/><path class="cls-5" d="M70.4,75.34c0-.05,0-.09.08-.15l-.17.13Z"/><path class="cls-5" d="M67.5,79.57a6.71,6.71,0,0,1,2.81-4.24c-1-.16-2-.32-3-.45Q67.37,77.26,67.5,79.57Z"/><path class="cls-5" d="M69,259.41l-1.73-3.19c3.76,2.4,5.43,5,4.09,1.76-.59.36-1.45-.09-2.46-1a26,26,0,0,1-3.24-3.46A40.62,40.62,0,0,0,62.55,250c-.92-1-1.74-1.5-2.36-1.2l-.89-2.24c.37.56.56.56.92,1.11-1.57-4.42-3.56-1.66-6.46-6.86-.91-1.87-1.24-3.33-.28-2.27l-2.87-3.64c-.61-1.19,0-1.12.57,0-1.2-2-2.27-4.06-3.42-6.09h.1a30.77,30.77,0,0,1-3.07-3.4c-.38-1.79.63.7.75.14-.72-1.09-1.49-2.18-2.19-3.3,0-.88.5-.62,1.08.15a14.29,14.29,0,0,1,1.86,3.28c.49-2.21,0-2.84-.81-3.93A13.85,13.85,0,0,1,43,215.25c.51,1.1,1.09,2.17,1.63,3.26a9.43,9.43,0,0,0-.3-4.11,40.59,40.59,0,0,1-1-5.19c-.18,1,.32,8.51-1.65,4.79a12.25,12.25,0,0,0-1.82-4.68c.92-.31.09-2.35-.72-5l1.29-.15a9.11,9.11,0,0,0-1.38-2.42,8.73,8.73,0,0,1-1.25-1.54c-.63-3.28.18-4.14.88-5.07-.73-5.24-.92,3.91-2.26-2.23a30.19,30.19,0,0,0-.36-3.11c-.13-1-.29-1.94-.5-2.92-.41-2-1-4-1.58-6.64.2-3.14.82.48,1.1-.66l-1.23-2.68c0-.68.3-.47.47-.37-.52-2.3-1.3-.12-1.75-3.79-.7-.48-.29-2.4.22-4.73s1-5.07.4-7.39c.45-1.09.74.59,1.26.27-.29-3.12-.38-4.47-.52-5.69s-.24-2.29-.63-4.94c.46-1.42.91-2.83,1.47-4.21-1.52,3-1.92-1.2-2.18-5-.66,1.06-1.24,2-1.54,2.6.11-2,.22-4,.48-5.94.37-.65.66,0,1,1.08,0-.41,0-.81-.06-1.12.94-2,1.41-.71,1.77.9L33,140.45c.51,1.58,1.12,3.05,1.91,2.89a8,8,0,0,1,0-1.92c.14.41.28.68.44.53s0-.82-.13-1.8l1.69-1-.48-.43,1.28-3.54c.41-1.18.95-2.32,1.41-3.48,0-1.38,0-2.74,0-4.13s.08-2.8.18-4.31c.05-.76.12-1.54.2-2.35s.27-1.63.44-2.5a39.53,39.53,0,0,1,1.56-5.69c.07,2.38,1.38,1.09,2.47,1.69-1.09.8-1.53,2.42-2,4.3l-.7,3a19.07,19.07,0,0,1-.93,3.12c.87-2.14,1.26-1.46,1.27-.84.4-2.62,1.08-5.16,1.65-7.77.44.28.76,0,1.13-.64s.82-1.46,1.43-2.31c-1.24.3-.94-1.17-.23-3.12.18-.49.38-1,.59-1.53l.71-1.55a23.53,23.53,0,0,0,1.12-2.8c.69.14.94,1.14-1,4.53a5.91,5.91,0,0,0,1.85-4.59,5.83,5.83,0,0,1,1.83-4.57c-.46.84-.81,1.24-.7,1.73a16,16,0,0,1,2.08-4c.85-1.23,1.68-1.94,1.57-1.25l-.5.81c.91-1.3,2-3,3.14-4.76s2.46-3.61,3.55-5.38S62,83.41,62.65,82.1s1.06-2.3.9-2.74a7.5,7.5,0,0,1,1.07,2.46c.94-4.07,2-8.26,3.37-12.37.37,1.73,5.51,1.39,2.48,5.75a21.44,21.44,0,0,0,2-1.74,33.58,33.58,0,0,0,2.52-3c-.89.54-3.34.29-2.42-.8a21,21,0,0,0,3.32-1.48,32.34,32.34,0,0,1,3.68-2c-1.37.78-1.61-2,.31-3.62-.07.51,1.63,1.58,1.11,2.34l1.56-2.84c.53-1,1.12-1.85,1.68-2.78-1,1.26,1,1.65,2.43,1.32-.38,0,.65-.78,1.92-1.73S91.45,57,92,56.42l-2.39,1.06a13.42,13.42,0,0,0,4.78-5.08A16.4,16.4,0,0,1,96.15,50a11.29,11.29,0,0,1,3.24-2.55c-.5.82-.3,3.47,2.83,2a35.62,35.62,0,0,1,2.67-5.29,20.8,20.8,0,0,1,6.2-6.52l1.37.1c1.36-.89,2.71-1.8,4.12-2.59-1.09,1.3-3.13,3.76-5.3,6.16-1.1,1.17-2.15,2.5-3.17,3.64s-2,2.19-2.76,3c2.51-.72,1,.36,4.35-1.44,1.47-.06-1.42,1.78-2.38,2.31,2.67-1.22,5.32-2.47,8.06-3.5-.46-.53.94-1.53,2.37-2.52s2.95-1.8,2.58-2.26c-2.86,1.55-5.57,3.4-8.29,5.11-.47-.52.38-2,2.13-3.58a19,19,0,0,1,3.23-2.44,25.37,25.37,0,0,1,4.23-2c1.7-.1-.28,2.68,0,3a15.75,15.75,0,0,1,6-2.74l-2.3,1.54a12.09,12.09,0,0,0,4.28-2,9,9,0,0,1,5-1.42,10.56,10.56,0,0,1,2.85.05c1,.1,1.79.14,1.82-.28-2.64-1-4.35-5.44-3-6.93.27,0,2.31-.11,4.49-.15a28.32,28.32,0,0,1,3.2.07,15.6,15.6,0,0,1,2.24.26c2.61.76-3.1,3.47-.86,4.12,0-.38,1.25-1.06,1.78-1.3,1.57,0-.43,1.23,2.82.48.35-1.43,6.77-.75,1.4-1.35a13,13,0,0,1,3.43-.45c1,0,2,0,3.89-.17-.65-.39.14-1.2,1.53-2a15.07,15.07,0,0,1,5.07-1.82c-.18.35.59.78,1,1,1.71,0,3.23,0,4.63.05s2.7.23,4,.34l3.88.35c1.34.16,2.75.31,4.33.44.56.36,3.56,1,2.21,1.49a10.86,10.86,0,0,1,3.74-.27c3.58,1.64-4.32-.36-1.65,1.4.32-.73,5.11-.54,7.92-.45-.32-.66-1.89-1.07-3.75-1.14s-4,0-5.38.1c.08-.84,1.37-1.55,3.52-2a22.89,22.89,0,0,1,3.81-.52c1.44,0,3,0,4.75.08,2.71.24,3.21.73,3.17,1s-.62.49-.14.47a28.72,28.72,0,0,0,5.66,1,23.86,23.86,0,0,0,3.52.07,14.7,14.7,0,0,1,3.2.16,17.1,17.1,0,0,1,4.52,1.71c2.82,2.09-.56,2.07-.11,3a22.74,22.74,0,0,1-5-1.87,26.33,26.33,0,0,0-4-1.61l3.35,1.48a17,17,0,0,1-5.72-1.29,17,17,0,0,0,3.65,1.5l2.89.91,3.27,1.14c1.14.4,2.32.79,3.48,1.23l3.43,1.43c1.12.49,2.22.93,3.21,1.46s1.93,1,2.75,1.53c1.39.23,3.7.87,2.87,0L230,39.91c-1.7-1.72,4.71.81,2.05-.83a48.83,48.83,0,0,1,5.21,1.52,28.75,28.75,0,0,1,2.82,1.17A25.12,25.12,0,0,1,243,43.55l.15,1.5c.1-.36-2.28-2.16-3.6-2.48,1,.24,2.33,1.5,3.75,2.64a15.55,15.55,0,0,0,2.16,1.51,3.57,3.57,0,0,0,2.05.61c-.77-.82-1.52-1.68-2.34-2.45,1.62.55,3.41,1.22,5.29,2a22,22,0,0,1,2.77,1.33A18.77,18.77,0,0,1,255.73,50c-.87-2.1-.85-.45-2.51-3.34,1.22,2.86-9.06-5.87-6.52-2.07a10.17,10.17,0,0,0-3.14-3.13,26.93,26.93,0,0,1-4-3.26c-.08.42.91,1.34-2.16-.46a4,4,0,0,1-.85,0l-.2-.14.15.13c-.16,0-.18,0,.06,0a5.07,5.07,0,0,1,1.32,1.37,16.47,16.47,0,0,1-4.45-1.28A41.05,41.05,0,0,0,229,36.41c-1.81-1,1-.07.12-.93-.95-.18-1.9-.33-2.87-.44.1-.93-4.62-3.43.18-2.1l-4.14-1.67a25,25,0,0,0-7.92-3c-2-.77-5.39-.5-3.44-.67-1.15-.22-2.29-.47-3.44-.67L204,26.37v-.23c-3.33-.91-6.92-1.07-10.54-1.55a61.12,61.12,0,0,1-11.24-1.87c-1.17,0-2.35.05-3.72,0a42.54,42.54,0,0,1-4.87-.18l-.75-.8c-1.49.06-3.74,0-5.77-.13s-3.87-.1-4.48.38a8.61,8.61,0,0,0-3.78-.68c-.81,0-1.68,0-2.6.08s-1.87.23-2.83.37c-1.93.32-3.93.61-5.75,1s-3.49.72-4.81.87v1l-1.33.23-1.31.33c-.88.23-1.76.47-2.66.74l-2.79.86c-1,.33-1.94.73-3,1.13l.5.79c-1.74.89-4.16,1.33-6.82,2-1.34.33-2.75.66-4.19,1s-2.85.93-4.26,1.5c.26-.47,1.73-1,2.82-1.16a19.77,19.77,0,0,0-5.43,1.44,47.33,47.33,0,0,0-5,2.72c-1.64.94-3.15,2-4.71,2.93A25.54,25.54,0,0,1,100,41.42a9.61,9.61,0,0,1-3.46,2,1.85,1.85,0,0,0,.33-.24l-.59.33a22,22,0,0,0-2.2.79c.7-.19,1.34-.4,1.88-.6a40.25,40.25,0,0,0-4.09,3l-1.2-.37-.35.26c-1.76.71-1,1.18.23,1.25a11.64,11.64,0,0,0-1.71,1.88c-1-.21-2,.62-3,1.46a10.46,10.46,0,0,1-1.55,1.17,3.21,3.21,0,0,1-1.77.55c-.25.71-2,2.29-3.67,3.93S75.81,60.3,76,61.26c-.19-.12-.68.16.07-.51a14.92,14.92,0,0,0-4.35,4.12l-1.49-.27-1.07,2.16-1,2.21c-2.42,1.46-3.55,2-2.33-.63-.88,1.46-1.54,2.44-2,3.2s-.85,1.31-1.2,1.81A28,28,0,0,0,60,77.85l-.44-.72c-1.22,1.61-2.36,4.77-3.62,5.32a22,22,0,0,0-3.78,4.11c-.38.49-.79,1-1.18,1.56l-1.18,1.76-2.54,3.88c-3.33,5.53-6.76,12-9.68,17.07,1.54-.55.72.55-.24,2s-2,3.19-1.27,3.73c-.76.43-1.65,1.83-1.4-.1-.21.72-.43,1.38-.66,2s-.41,1.21-.61,1.77c-.41,1.11-.82,2.09-1.19,3a11.83,11.83,0,0,0-1,5.78c-.72.5-.43-1.45-.91-1a4.74,4.74,0,0,1-.54,2.46c-.48.5-.21-1-.18-1.94a18.79,18.79,0,0,0-.66,3.59,6.1,6.1,0,0,0,.3,2.21,3.44,3.44,0,0,0,1.87,1.93,12.17,12.17,0,0,0-1.29,3.5,8,8,0,0,0,.32,3.17c-.7.94-1.55,2.6-1.07-1.12l-.64,2.83-.45,2.06L27.62,149c-.4,3-.61,5.7.06,5.87a8.63,8.63,0,0,0-.21,3.48l-.28,2.85c-.07.77-.08,1.41-.11,2C27,164.47,27,165.73,27,168l.24-1.28c1.45,1.83.34,3.82.61,7.53l-.16-.1a24.64,24.64,0,0,0-.18,4.31,10.19,10.19,0,0,0,.23,1.77,8.87,8.87,0,0,1,.2,1.75c0,.43,0,1,0,1.66s0,1.54,0,2.61l.89-.57c1.07.27,1,2.13.84,4.54s-.16,5.36.66,7.68l.22-1.84c.54,1.25.29,3.18-.09,5.19s-.9,4.1-.62,5.43c0,.62-.55-.82-.87-1.6.74,7.21,1.46.58,3.17,5.58-.36,1.13-2-.71-1.09,2.76,0,.93,1.37,3.24,2.78,5.9A44.18,44.18,0,0,1,36,223.47a19.33,19.33,0,0,1,.79,2.05,11.28,11.28,0,0,1,.52,1.93c0-1.19.08-2.35,1.45-.28a19.08,19.08,0,0,1,1.14,3l.53,1.76.62,1.78c.87,2.35,1.83,4.64,3.43,5.69.11.48.08.71,0,.79.92,1.13,2.17,3.1,3.56,4.81a18.64,18.64,0,0,0,3.55,3.74c-.36,1,.25,2.36,1.24,3.86a31.13,31.13,0,0,0,3.86,4.59c1.45,1.47,2.8,2.9,3.73,4s1.34,2,.75,2.47c1,1.09,1.95,2.21,3,3.26l3.1,3.14-.38.05a23.1,23.1,0,0,0,4.6,4.14,15,15,0,0,0,3.16,1.62c.84,1-.06.6-.25.64,2.91,2.92,4.52,4.54,6.29,5.68a34.89,34.89,0,0,0,6.73,3.45v1.22a9.73,9.73,0,0,1,2.27,1.59c1,.86,2.37,1.87,3.85,3,.75.57,1.54,1.17,2.37,1.76s1.74,1.12,2.65,1.65a28.24,28.24,0,0,0,5.67,2.72c-.12.06-.36.16-1,0,4.3,1.61,8.91,4.56,13.19,6.67s8.12,3.48,10.24,2.3c2,.4,4,.57,6,.85-7.31-2.37,1.53-1.19-1.33-2.63a14.85,14.85,0,0,1,4.22,1.71c1,.56,1.16,1-.65.63l-.51-.33c-1.83,1.58,9.1,2.89,8.66,4a203,203,0,0,0,22.34,3.07l5.54.33c1.84.05,3.68,0,5.51.06.91,0,1.83,0,2.74,0l2.72-.14c1.81-.13,3.62-.16,5.4-.4-.6-.42-1.19-.82-1.79-1.27,1.65-.13,3.29-.35,4.94-.52,1.34.17,1.9.91-1.65,1.3a6.43,6.43,0,0,0,3.67-.54,5.56,5.56,0,0,0,2.2-1.29c7-.64-2.4,2.16-.3,1.82l2.86-.62-.68-.05c1.11-.5,1.69-.92,2.51-1.29a10.73,10.73,0,0,1,1.52-.54,24.39,24.39,0,0,1,2.46-.63c2.7-.32,1.56.57,2.61.38,0,.1.38.07,1.61-.33,2-.49,4.08-1.06,6.12-1.58l-2.75-.42c2.52-1.29,5.67-1.58,2.53-2,2.3.34,7.94-1.28,13.16-3.44,1.32-.49,2.58-1.11,3.78-1.65l3.35-1.54a34.65,34.65,0,0,1,4.16-1.88c.77-.63,1.56-1.21,2.38-1.76s1.62-1.14,2.48-1.69c1.71-1.1,3.61-2.1,5.61-3.37-1.12.43-2.39-.3,1.1-2.35.05.76.51,1,1.23.81a9.59,9.59,0,0,0,2.77-1.27c2.12-1.3,4.74-2.92,6.6-3.24-1.56.41.7-1.46,2.74-3.25s3.72-3.65,1.4-2.81c2.72-2.07.8.63,3.18-.6.68-.78,1.44-1.5,2.17-2.28s1.52-1.55,2.33-2.31l2.5-2.3,2.54-2.43c.86-.82,1.76-1.62,2.62-2.49l2.54-2.67a53.72,53.72,0,0,0,4.8-5.81c-.18-.34-1.65.66-.73-1.36,1.59-1,3-2.15,4.57-3.26a5,5,0,0,0,.47-2.27,2.75,2.75,0,0,1,.47-1.18,6.53,6.53,0,0,1,1.48-1.55c-.53.27-1.31.67-.69-.51,6.11-7.79,10.5-17,14-26.51s6.19-19.23,9.39-29c-1.15,2.58-.9.77-.56-1.28-.39,1.31-.85-.16-1.37,0,.79-2.69,1.63-5.41,2.34-8.16-.6-.83-.45-3.07-.3-5.23a19.05,19.05,0,0,0,0-3c-.06-.85-.21-1.48-.52-1.71l.16,2.65c-.71-1.79-1.55-.58-2.5.95s-2.08,3.38-3,3.06a6.47,6.47,0,0,1,.11,3.29,38.46,38.46,0,0,1-1.16,3.84,38.13,38.13,0,0,0-1.14,4.27,12,12,0,0,0-.05,4.68c-.62,1.28-.4-1.27-1-.63.57,1.71.26,3.61-.88,7l-.11-.44-.38,1.75c-.14.56-.3,1.09-.45,1.62-.3,1-.6,2-.89,3a50.32,50.32,0,0,1-2,5.25c-.7,1.7-1.42,3.44-2.37,5.32s-1.86,4-3.17,6.46l1.2-.36a16.34,16.34,0,0,1-2.24,3.36c.17,3.11,2.82-6.05,3.25-3.14a10.09,10.09,0,0,0-2.43,3.3c-.84,1.55-1.85,3.35-2.78,5.17a39.84,39.84,0,0,1-2.94,4.85c-1,1.33-1.81,2.27-2.58,2.41-2,3.06,1.51-.32-.47,2.75l-1,.49.14,1.2a6.67,6.67,0,0,1-2,1.95c-.57.35-1,.43-1.25.33a17.33,17.33,0,0,0,1.16-1.94,22,22,0,0,0-3.4,4.49,23.67,23.67,0,0,1-2.36,3.37c.81-.84,1.64-1.67,2.44-2.53-1.42,2-3,4.16-4.67,6.24s-3.49,4.17-5.42,6.12l-2.8,3c-1,1-1.91,1.9-2.84,2.85-1.81,1.95-3.68,3.7-5.3,5.52l.84-.14c-.63.68-1.18,1.26-1.68,1.73s-1,.83-1.36,1.15a21.58,21.58,0,0,1-2.13,1.47c-.68.41-1.35.86-2.3,1.46s-2.12,1.42-3.71,2.68l.18-.26a18,18,0,0,1-4.68,3.84c1.44-1.55-3.78,1.22-1.83-.72-.77.64-1.42,1.14-2,1.53s-.94.72-1.27,1A6.8,6.8,0,0,0,239,289.1c-.22.28-.35.54-.66,1a13.46,13.46,0,0,1-1.81,2.05l-1.44-.1a20.24,20.24,0,0,1-1.58,1.69,14.68,14.68,0,0,1-3.31,2.08c2.78-2-2.84,0,.2-2.25a25.92,25.92,0,0,0-5.3,1.88c-1.49.67-2.76,1.34-3.9,2-2.26,1.28-4.12,2.11-6.34,1.61-1.52,1.6.3,1.28,2.29.7s4-1.56,3.11-.93c1,0,.36.63-.83,1.4A19.11,19.11,0,0,1,215.1,302c-1.31.43-2.62.19-4.42,0a18.12,18.12,0,0,0-3.11,0,18.63,18.63,0,0,0-1.94.26c-.71.1-1.47.23-2.3.43.66-.14.67-.3,1.33-.45a12.38,12.38,0,0,0-3.73.91,17,17,0,0,1-2,.57,8.82,8.82,0,0,1-2.25.09c-1.5,1.53-4,.64-4.25,2.3l6.13-1.47c-1.71.51-3.31,1.38-5.25,2.13a18.74,18.74,0,0,1-7.22,1.16,14.81,14.81,0,0,1,3.28-1.4c-1.76-.27-3.25.78-5.08.42.18-.78,2.06-1.08,4.34-1.43,1.14-.17,2.39-.33,3.57-.56a14.31,14.31,0,0,0,3.16-1.1c-1-.18-2.65.46-3.95.78s-2.14.45-1.31-.52c-1.2,1.25-2.88,1.4-4.79,1.51a14.83,14.83,0,0,0-6.3,1l.25-1a12.44,12.44,0,0,1-3.55.72l2.37-1.29c-3.68,1.13-7.14-.67-10.67-.27,3.7.09,4.12.37,4,.74s-.78.86.81,1.17c-9.3,1.1-5.27-2.41-15.45-2.76,1.38,0,5.14,1,2.93,1.26a28.91,28.91,0,0,1-3.1-.68,13.26,13.26,0,0,1-2.48-1c-6.75-.66.91,1.1-2,1.31-2.15-1.4-3.38,0-6.43-.2l.16-1c-.94-.25-1.69-.41-2.28-.5a7.37,7.37,0,0,0-1.37-.18,1.74,1.74,0,0,0-1.22.37c-.51.38-.94.76-4.3-.39l3.22-.63c-1.21-.17-2.44-.3-3.64-.51.34-.29.67-.56,1-.87a21.66,21.66,0,0,1-4.54-.69,27.83,27.83,0,0,1-4.23-1.59c.65.94-1,1.5-4.34.41-2-1.35,1.54-.36-3.08-2a6.82,6.82,0,0,1,2-.07,4.79,4.79,0,0,1,2.33,1.19c.31-.23,1.23-.22,1.54-.45-2.19-1.36-5.86-2.34-7.51-3a9.18,9.18,0,0,1,1.68.91c-1.17-.23-2.36-.44-3.53-.69l-3.5-.85c-.87-.79.06-.69,1-.59-1.34-.51-2.46-.45-4.38-1.34.83-.46,1.06-1.2,3.9-.33-2.17-.61-4.26-1.41-6.38-2.16-.25-.49-2.6-2.41-1.69-2.26a27,27,0,0,0-5.91-2.82,24.71,24.71,0,0,1-6.46-3.74,4.92,4.92,0,0,1-1.72-.72c-.92-.71-1.78-1.44-2.64-2.16s-1.64-1.54-2.5-2.3-1.77-1.49-2.76-2.22a26.47,26.47,0,0,0-3.24-2.19c-.47-1-1-2-1.38-3.1-3.32-2.73,1.86,4.22-3.7-.35-2-1.6-2.14-2.14-1.89-2.48s.85-.44.37-1.22a38.85,38.85,0,0,1-4.3-2.78,15.89,15.89,0,0,1-4.21-5.1A37.38,37.38,0,0,1,69,259.41ZM41.7,214.1c.26.46.7,1.12,1,1.78a2.63,2.63,0,0,1,.52,1.75A2.15,2.15,0,0,1,42,216.27,19.36,19.36,0,0,1,41.7,214.1Zm-5.51-80.48a6.13,6.13,0,0,1-1,3.22A11.14,11.14,0,0,1,36.19,133.62Zm182.68-103h-.13C216.53,29.53,217.31,29.95,218.87,30.66Zm4.65,2.14c.52.06.54-.08.39-.28a6.8,6.8,0,0,1-2.68-.84C221.48,32,222,32.45,223.52,32.8ZM206,310l-1,0C207.08,309.22,206.53,309.6,206,310Z"/><path class="cls-5" d="M35.47,143a.87.87,0,0,1-.59.34C35,143.77,35.14,143.81,35.47,143Z"/><path class="cls-5" d="M94,280.84l.13.1a.4.4,0,0,0,.23,0Z"/><path class="cls-5" d="M147.38,33.35a6.28,6.28,0,0,1-2-.15C145.4,33.44,145.88,33.56,147.38,33.35Z"/><path class="cls-5" d="M248.52,43.37c-1-.54-2-1-3-1.47a8.4,8.4,0,0,1,2.39,1.78C248,43.44,247.64,42.83,248.52,43.37Z"/><path class="cls-5" d="M267.21,65.05c.42.23.72.67,1.13.89l.22-.41C267.1,64.19,265.86,63.51,267.21,65.05Z"/><path class="cls-5" d="M249.35,47.71c-.11.41.29.83,1,1.28.34.23.75.46,1.2.71l1.39.84c-.11-.08-.22-.14-.32-.23.59-.27.35-.68-.32-1.16A20.7,20.7,0,0,0,249.35,47.71Z"/><path class="cls-5" d="M253.35,50.82A18.82,18.82,0,0,1,255.06,52C255.54,51.8,254.42,51.44,253.35,50.82Z"/><path class="cls-5" d="M229.71,34.76c.91.64,1-.67,1.47-.11.77-.22-1-.69-2.29-.85-.63-.09-1.14-.06-1.13.07S228.3,34.26,229.71,34.76Z"/><polygon class="cls-5" points="249.41 50.92 249.29 49.66 247.8 49.66 249.41 50.92"/><path class="cls-5" d="M234.59,41.51l3,1.87c0-.17.48-.05,1,.13C236.7,42.48,234.64,41.2,234.59,41.51Z"/><path class="cls-5" d="M238.64,43.51a14.69,14.69,0,0,0,2.58,1.27A22.15,22.15,0,0,0,238.64,43.51Z"/><path class="cls-5" d="M245.17,48.56c-.26-.25-.51-.5-.78-.74l-2.13-1.31C243.24,47.2,244.24,47.82,245.17,48.56Z"/><path class="cls-5" d="M198.48,29l-3.88-.4c-.44.27.56.66,2,.78C197.55,29.34,199,29.47,198.48,29Z"/><path class="cls-5" d="M209.18,34.41a3.9,3.9,0,0,1-1.42-1.2l-.43,1.17Z"/><path class="cls-5" d="M198.3,32.09c-.45.27-5.6,0-.86.77C197.88,32.56,201.68,33,198.3,32.09Z"/><polygon class="cls-5" points="140.95 31.13 141.9 30.9 141.34 28.94 140.95 31.13"/><path class="cls-5" d="M96.71,54.92c4-2,.2-1.64,3.91-3.25.63-1-3,1.32-2.35.4C96.27,53.95,94.94,54.46,96.71,54.92Z"/><path class="cls-5" d="M98.27,52.07c.32-.3.65-.63,1-1A7.59,7.59,0,0,0,98.27,52.07Z"/><path class="cls-5" d="M317.33,177.24c.24-1,.37-2,.55-3l-.73,1.94C317.23,176.52,317.27,176.88,317.33,177.24Z"/><path class="cls-5" d="M316,171.37l1.32-.69-1.13-1.83A6,6,0,0,1,316,171.37Z"/><path class="cls-5" d="M41.82,205.83l-.36-.12c-.21.51-.05,1.15.26,2.44Z"/><polygon class="cls-5" points="56.43 240.91 56.1 240.34 55.77 242.01 56.43 240.91"/><path class="cls-5" d="M77.62,264.76c-.92-.91-2.16-1.83-3-2.82C76.67,263.87,76.87,266,77.62,264.76Z"/></g></g></svg>