
<svg width="720px" height="626px" viewBox="0 0 720 626" version="1.1" xmlns="http://www.w3.org/2000/svg" xmlns:xlink="http://www.w3.org/1999/xlink">
    <!-- Generator: Sketch 45.1 (43504) - http://www.bohemiancoding.com/sketch -->
    <desc>Created with Sketch.</desc>
    <defs></defs>
    <g id="Landing" stroke="none" stroke-width="1" fill="none" fill-rule="evenodd">
        <g id="Desktop-HD" transform="translate(-393.000000, 0.000000)" fill-rule="nonzero" fill="#F15A29">
            <g id="Asset-1" transform="translate(-458.000000, -47.000000)">
                <path d="M1019.11117,519.725112 L1015.2468,512.762251 C1023.64565,518.000767 1027.37599,523.675826 1024.38278,516.603829 C1023.06488,517.389607 1021.14387,516.407385 1018.88779,514.421115 C1016.24506,512.124304 1013.82256,509.596403 1011.65049,506.868921 C1009.48845,504.179078 1007.16894,501.613738 1004.70358,499.185765 C1002.64854,497.00305 1000.81688,495.911692 999.43196,496.566507 L997.443936,491.677226 C998.270418,492.899546 998.694828,492.899546 999.498972,494.100039 C995.992008,484.452439 991.546875,490.476732 985.069043,479.126615 C983.036344,475.044938 982.299212,471.858174 984.443597,474.171852 L978.032777,466.22677 C976.670199,463.629339 978.032777,463.782129 979.306007,466.22677 C976.625524,461.86134 974.235428,457.364948 971.666632,452.934037 L971.890006,452.934037 C969.418618,450.630229 967.126412,448.149613 965.032439,445.512806 C964.18362,441.605746 966.439692,447.040706 966.70774,445.818386 C965.099451,443.439227 963.379475,441.060068 961.81586,438.615427 C961.81586,436.694638 962.932728,437.262144 964.228294,438.942834 C965.930757,441.139465 967.327832,443.546852 968.383042,446.102139 C969.477572,441.278339 968.383042,439.903229 966.573716,437.524069 C963.521902,433.332445 961.615195,428.449173 961.034053,423.336423 C962.173258,425.737409 963.468824,428.072914 964.675041,430.452073 C965.131238,427.450048 964.902401,424.386589 964.004921,421.481115 C963.009265,417.75645 962.263106,413.972332 961.771186,410.152825 C961.369113,412.33554 962.485981,428.727729 958.085523,420.608029 C957.466787,416.965213 956.082578,413.487117 954.020125,410.392924 C956.075161,409.716282 954.221161,405.263544 952.411835,399.479349 L955.293354,399.151942 C954.549047,397.247205 953.509376,395.465657 952.210799,393.869772 C951.152416,392.856601 950.215648,391.728864 949.41863,390.508391 C948.011377,383.349086 949.820703,381.471951 951.384317,379.442027 C949.753691,368.004601 949.329281,387.976442 946.336076,374.574572 C946.188357,372.299757 945.919948,370.033964 945.531931,367.786329 C945.241546,365.603614 944.884148,363.551862 944.415064,361.412802 C943.499232,357.047372 942.181328,352.681942 940.885762,346.919575 C941.332509,340.06585 942.717425,347.967278 943.342871,345.478983 L940.595377,339.629307 C940.595377,338.145061 941.265497,338.603431 941.645232,338.821703 C940.48369,333.801459 938.741376,338.559777 937.736196,330.549213 C936.172581,329.50151 937.088412,325.310698 938.227617,320.224972 C939.366822,315.139246 940.461352,309.158608 939.121111,304.094709 C940.126292,301.71555 940.774075,305.382511 941.935618,304.684042 C941.287834,297.873972 941.086798,294.927307 940.774075,292.264394 C940.461352,289.601482 940.237979,287.265977 939.366822,281.481783 C940.39434,278.382328 941.399521,275.3047 942.650413,272.292553 C939.255135,278.840698 938.361641,269.673295 937.78087,261.378979 C936.306605,263.692657 935.011039,265.744409 934.340918,267.054038 C934.586629,262.688608 934.83234,258.323178 935.413111,254.088711 C936.239593,252.669947 936.887376,254.088711 937.646846,256.446043 C937.646846,255.55113 937.646846,254.678044 937.512822,254.001403 C939.612533,249.635973 940.662389,252.451675 941.466533,255.965846 L938.696702,260.06935 C939.835907,263.518039 941.198485,266.72663 942.963136,266.377396 C942.790963,264.985524 942.790963,263.578455 942.963136,262.186583 C943.275859,263.081496 943.588582,263.67083 943.945979,263.343422 C944.303377,263.016015 943.945979,261.553596 943.655594,259.414536 L947.430606,257.231821 L946.358413,256.293253 L949.217594,248.566443 C950.133426,245.990839 951.339643,243.502544 952.367161,240.970595 C952.367161,237.958448 952.367161,234.989956 952.367161,231.955982 C952.367161,228.922009 952.54586,225.844381 952.769233,222.548481 C952.88092,220.889618 953.037281,219.1871 953.21598,217.419101 C953.394679,215.651102 953.819089,213.861276 954.198824,211.962314 C955.042136,207.743391 956.206922,203.591949 957.68345,199.542666 C957.839812,204.737528 960.766005,201.921826 963.200776,203.231455 C960.766005,204.977626 959.783161,208.513625 958.733306,212.617129 L957.169691,219.165273 C956.677162,221.489011 955.982172,223.767335 955.092318,225.975344 C957.035667,221.304334 957.906824,222.78858 957.929161,224.141863 C958.822655,218.42315 960.341595,212.879054 961.614824,207.182168 C962.597668,207.793329 963.312463,207.182168 964.138945,205.785231 C964.965427,204.388293 965.970608,202.598467 967.333186,200.74316 C964.563355,201.397974 965.233475,198.189383 966.819427,193.933089 C967.221499,192.863559 967.668246,191.750374 968.137331,190.593535 L969.723283,187.210327 C970.690089,185.227495 971.525733,183.186103 972.225066,181.098726 C973.766343,181.404306 974.324777,183.587021 969.991331,190.986424 C972.80226,188.39833 974.312365,184.737214 974.123741,180.967763 C973.912438,177.216118 975.408658,173.565001 978.211476,170.992756 C977.183958,172.826236 976.402151,173.699322 976.647862,174.768853 C977.767104,171.658869 979.331353,168.719408 981.294031,166.037993 C983.192706,163.353254 985.046706,161.803526 984.800995,163.309599 L983.684127,165.077599 C985.716826,162.240069 988.151598,158.529454 990.698056,154.687876 C993.244514,150.846298 996.193044,146.808275 998.627815,142.94487 C1001.06259,139.081464 1003.47502,135.567293 1004.92695,132.707937 C1006.37888,129.84858 1007.29471,127.687693 1006.93731,126.727298 C1008.05777,128.362219 1008.86742,130.181136 1009.32741,132.096777 C1011.42712,123.213127 1013.79488,114.067552 1016.85509,105.096594 C1017.68158,108.87269 1029.16297,108.130567 1022.39476,117.647204 C1023.96266,116.472489 1025.45467,115.20409 1026.86223,113.84928 C1028.86739,111.775478 1030.74692,109.589042 1032.49124,107.301136 C1030.50322,108.479802 1025.03056,107.934123 1027.0856,105.554964 C1029.64851,104.68963 1032.1298,103.608776 1034.5016,102.324546 C1037.14224,100.697369 1039.88805,99.2391689 1042.72175,97.959116 C1039.66153,99.6616336 1039.12543,93.5936863 1043.41421,90.0576882 C1043.25784,91.1708728 1047.05519,93.5063777 1045.89365,95.165241 L1049.37828,88.9663307 C1050.56216,86.7836159 1051.88006,84.9283082 1053.13095,82.8983834 C1050.89722,85.6486041 1055.36469,86.4998629 1058.55893,85.779567 C1057.71011,85.779567 1060.01086,84.0770494 1062.8477,82.0034703 C1065.68454,79.9298911 1069.25852,77.9217935 1070.48707,76.6558188 L1065.14845,78.9694966 C1069.6455,76.2576651 1073.32902,72.4323835 1075.8257,67.881305 C1076.97097,66.022311 1078.28685,64.268921 1079.75708,62.6427893 C1081.79942,60.3691113 1084.25276,58.4823463 1086.99438,57.0768664 C1085.87751,58.8666926 1086.32426,64.650887 1093.31585,61.4422961 C1094.97223,57.4382586 1096.96715,53.576044 1099.27992,49.8957344 C1102.77848,44.2214682 1107.50544,39.3640783 1113.12908,35.6644334 L1116.1893,35.8827049 C1119.22718,33.9400887 1122.24272,31.9538181 1125.39228,30.2294734 C1122.95751,33.0670027 1118.40069,38.4364813 1113.55349,43.674997 C1111.09638,46.2287734 1108.75096,49.1317842 1106.47255,51.6200792 C1104.19414,54.1083742 1102.00508,56.4002248 1100.30744,58.1682238 C1105.91411,56.5966691 1102.54117,58.9540012 1110.02419,55.0251144 C1113.30778,54.8941515 1106.85228,58.9103469 1104.7079,60.0671858 C1110.67197,57.4042736 1116.59137,54.67588 1122.7118,52.4276837 C1121.68428,51.2708448 1124.81151,49.0881299 1128.00575,46.9272422 C1131.2,44.7663545 1134.59527,42.9983554 1133.76879,41.9943066 C1127.38031,45.3775146 1121.32689,49.4155372 1115.25113,53.1479796 C1114.20127,52.0129679 1116.09995,48.7825499 1120.00898,45.3338603 C1122.21302,43.3125922 1124.63173,41.527187 1127.22395,40.008036 C1130.22917,38.2715904 1133.39219,36.8102337 1136.67265,35.6426063 C1140.47,35.4243348 1136.0472,41.4922822 1136.67265,42.1907509 C1140.65805,39.2951929 1145.22567,37.2569554 1150.07506,36.2101122 L1144.93747,39.5714931 C1148.38704,38.7448354 1151.63584,37.2613758 1154.49785,35.2060633 C1157.82777,33.1220565 1161.71271,32.0439353 1165.66653,32.1066082 C1167.78387,31.861675 1169.92543,31.898388 1172.03267,32.2157439 C1174.26641,32.4340154 1176.03106,32.521324 1176.09807,31.6045838 C1170.20101,29.4218689 1166.38132,19.7306148 1169.39687,16.4783697 C1169.99998,16.4783697 1174.5568,16.238271 1179.42634,16.1509624 C1181.81003,16.0701767 1184.19649,16.1211881 1186.57429,16.3037525 C1188.25397,16.3747252 1189.9262,16.5643892 1191.57786,16.8712583 C1197.40791,18.5301217 1184.65328,24.445279 1189.65684,25.8640436 C1189.65684,25.034612 1192.44901,23.5503659 1193.63289,23.0265143 C1197.13986,23.0265143 1192.67239,25.7112536 1199.93203,24.0742174 C1200.71383,20.9529352 1215.05441,22.4371813 1203.05926,21.1275524 C1205.55698,20.4680798 1208.13369,20.1377486 1210.72097,20.1453307 C1212.9547,20.1453307 1215.18844,20.1453307 1219.4102,19.7742691 C1217.95827,18.9230103 1219.72292,17.1550113 1222.82781,15.4088394 C1226.32803,13.4307767 1230.16431,12.0851027 1234.15285,11.4362983 C1233.75078,12.2002485 1235.47075,13.1388159 1236.38658,13.6190132 C1240.20627,13.6190132 1243.60155,13.6190132 1246.72878,13.7281489 C1249.85601,13.8372847 1252.75986,14.2301733 1255.66372,14.470272 L1264.33061,15.2342222 C1267.32382,15.5834566 1270.47338,15.9108638 1274.00268,16.1946167 C1275.25358,16.9803941 1281.95478,18.3773316 1278.93924,19.4468619 C1281.66793,18.7785772 1284.49478,18.5791609 1287.29341,18.8575289 C1295.29018,22.4371813 1277.64367,18.0717515 1283.60774,21.9133297 C1284.32254,20.3199479 1295.02213,20.7346637 1301.29893,20.931108 C1300.58413,19.4905162 1297.07717,18.5956031 1292.92242,18.4428131 C1288.76767,18.290023 1283.98748,18.4428131 1280.90493,18.6610845 C1281.08362,16.827604 1283.96514,15.2778765 1288.76767,14.2956548 C1291.56692,13.6847351 1294.4138,13.3050585 1297.2782,13.1606431 C1300.49478,13.1606431 1303.97941,13.1606431 1307.88845,13.3352602 C1313.94187,13.8591118 1315.05874,14.9286421 1314.96939,15.5179751 C1314.88004,16.1073081 1313.58447,16.5875054 1314.65666,16.5438511 C1318.78568,17.682697 1323.0212,18.4139294 1327.2996,18.726566 C1329.91309,18.9666342 1332.54116,19.0177032 1335.16235,18.879356 C1337.55091,18.7409327 1339.94779,18.8580395 1342.3103,19.2285904 C1345.83965,19.9994207 1349.23908,21.2561148 1352.40679,22.9610329 C1358.70592,27.5229069 1351.1559,27.4792526 1352.16108,29.5091775 C1348.2871,28.5818144 1344.53838,27.2118181 1340.9924,25.4275007 C1338.11742,24.0193823 1335.12909,22.844052 1332.05746,21.9133297 L1339.54047,25.1437477 C1335.14673,24.9354134 1330.82345,23.9826768 1326.76351,22.3280455 C1329.34194,23.7249734 1332.07808,24.8237316 1334.91664,25.6021179 L1341.37214,27.5883884 L1348.67645,30.0766834 C1351.22291,30.9497693 1353.85871,31.8010281 1356.44985,32.7614227 L1364.11156,35.8827049 C1366.61334,36.9522352 1369.07045,37.9126298 1371.28185,39.0694686 C1373.49325,40.2263075 1375.59296,41.2521835 1377.42462,42.4090224 C1380.52951,42.9110468 1385.68944,44.3079844 1383.83544,42.4090224 L1378.74252,40.6191962 C1374.94517,36.8649266 1389.26342,42.3871953 1383.32168,38.8075429 C1387.26088,39.7017783 1391.14613,40.8093975 1394.95944,42.1252695 C1397.10396,42.8669086 1399.20663,43.719369 1401.25857,44.6790459 C1403.52054,45.8278395 1405.69976,47.1259242 1407.78108,48.5642784 L1408.11614,51.8383507 C1408.33951,51.0525733 1403.02323,47.1236865 1400.07469,46.4252178 C1402.30843,46.9490694 1405.2793,49.6992901 1408.4512,52.1875851 C1409.96115,53.417655 1411.57523,54.5202472 1413.27607,55.4834845 C1414.62733,56.3741678 1416.22546,56.8388462 1417.85523,56.8149406 C1416.13525,55.0251144 1414.45995,53.1479796 1412.62829,51.4672891 C1416.24694,52.6677823 1420.24532,54.1302013 1424.44475,55.8327189 C1426.57395,56.6582903 1428.64147,57.628326 1430.63219,58.7357297 C1432.59985,59.8866594 1434.46756,61.1933958 1436.21653,62.6427893 C1434.27318,58.0590881 1434.31785,61.6605676 1430.60985,55.3525216 C1433.33501,61.5950862 1410.37221,42.5399853 1416.0459,50.8343018 C1414.25055,48.08068 1411.85567,45.7479565 1409.03197,44.0024043 C1405.82743,41.915459 1402.83539,39.5326394 1400.09703,36.8867538 C1399.91833,37.803494 1402.12973,39.8115917 1395.27216,35.8827049 C1394.64107,35.9486002 1394.00458,35.9486002 1393.37349,35.8827049 L1392.92674,35.5771248 L1393.2618,35.8608778 C1392.90441,35.8608778 1392.85973,35.8608778 1393.39583,35.8608778 C1394.56296,36.6669199 1395.56342,37.6815522 1396.34436,38.8511972 C1392.91287,38.3819512 1389.56644,37.4413661 1386.40424,36.0573221 C1383.1679,34.8496102 1379.86412,33.8220869 1376.50879,32.9796941 C1372.46573,30.7969793 1378.74252,32.8269041 1376.77684,30.9497693 C1374.65479,30.5568806 1372.53274,30.2294734 1370.36602,29.9893748 C1370.58939,27.9594499 1360.04616,22.5026627 1370.76809,25.4056735 L1361.52043,21.7605397 C1356.04739,18.6105599 1350.0645,16.3960759 1343.82924,15.212395 C1339.36177,13.5317046 1331.78941,14.1210376 1336.1452,13.7499761 C1333.5764,13.2697788 1331.02994,12.7241001 1328.46115,12.2875571 L1320.66541,11.0652368 L1320.66541,10.5632124 C1313.22707,8.57694181 1305.20796,8.22770743 1297.12184,7.18000429 C1288.64097,6.58637304 1280.23539,5.21987742 1272.01466,3.09832747 C1269.40119,3.09832747 1266.76538,3.20746322 1263.70516,3.09832747 C1260.07436,3.17059527 1256.44231,3.03941718 1252.82687,2.70543879 L1251.15157,0.959266892 C1247.82331,1.09022978 1242.7974,0.959266892 1238.26292,0.675513958 C1233.72844,0.391761024 1229.61837,0.45724247 1228.25579,1.50494561 C1225.59155,0.395285702 1222.70524,-0.112084568 1219.81227,0.0206994944 C1218.00294,0.0206994944 1216.05959,0.0206994944 1214.00456,0.195316685 C1211.94952,0.369933875 1209.82747,0.697341106 1207.68309,1.00292119 C1203.37198,1.70138995 1198.90451,2.33437726 1194.83911,3.18563607 C1190.77371,4.03689487 1187.04337,4.75719078 1184.09484,5.08459801 L1184.09484,7.26731289 L1181.12398,7.76933731 L1178.19778,8.48963322 C1176.2321,8.99165764 1174.26641,9.51550921 1172.25605,10.1048422 L1166.02393,11.981977 C1163.79019,12.7022729 1161.69048,13.5753589 1159.32272,14.4484448 L1160.43959,16.1727896 C1156.55289,18.1154058 1151.14725,19.0758004 1145.20552,20.5382193 C1142.21231,21.2585152 1139.06274,21.9788112 1135.84617,22.7209342 C1132.62959,23.4630573 1129.48002,24.7508591 1126.33045,25.9950065 C1126.91122,24.9691305 1130.19482,23.8122917 1132.62959,23.4630573 C1128.45403,23.9412551 1124.36974,24.9996406 1120.5004,26.6061667 C1116.65899,28.3644249 1112.92936,30.3470039 1109.33173,32.5431512 C1105.6684,34.5949031 1102.29546,36.9085809 1098.81084,38.9385058 C1095.50877,40.9409706 1092.00595,42.6084941 1088.35696,43.9150957 C1086.12224,45.8833915 1083.48907,47.3706907 1080.62823,48.2805254 C1080.89296,48.133002 1081.14017,47.9573165 1081.36537,47.7566739 L1080.04746,48.4769698 C1078.37927,48.9662487 1076.73889,49.5418425 1075.13324,50.2013145 C1076.69686,49.7865987 1078.12645,49.3282286 1079.33267,48.8916856 C1076.14948,50.8845407 1073.0981,53.0715972 1070.19669,55.4398302 L1067.51621,54.6322257 L1066.7344,55.1997316 C1062.80303,56.7494592 1064.50066,57.7753351 1067.24816,57.9281252 C1065.82548,59.155636 1064.54462,60.5316698 1063.42847,62.0316292 C1061.19474,61.573259 1058.961,63.3849124 1056.72727,65.2183929 C1055.65671,66.1727244 1054.49762,67.0276669 1053.26498,67.7721693 C1052.09654,68.5435107 1050.7213,68.9610855 1049.31127,68.9726625 C1048.75283,70.52239 1044.8438,73.9710795 1041.11346,77.5507319 C1037.38312,81.1303843 1034.3229,85.1247526 1034.74731,87.2201588 C1034.3229,86.9582331 1033.22837,87.5693932 1034.90367,86.1069743 C1031.0758,88.4317266 1027.77025,91.4909942 1025.18693,95.0997595 L1021.85866,94.5104265 L1019.46856,99.2250907 L1017.23483,104.048891 C1011.82919,107.235654 1009.30507,108.41432 1012.03023,102.67378 C1010.06454,105.860544 1008.59027,107.999604 1007.56276,109.658468 C1006.53524,111.317331 1005.66408,112.517824 1004.88227,113.609182 C1002.61576,116.697645 1000.649,119.985961 999.00755,123.431399 L998.024707,121.859844 C995.29955,125.374015 992.753092,132.271394 989.938586,133.471887 C986.745562,136.099627 983.908206,139.114222 981.495067,142.442845 C980.646248,143.512376 979.730416,144.62556 978.859259,145.84788 L976.223452,149.689459 L970.549765,158.158392 C963.111427,170.228806 955.449715,184.350971 948.927209,195.417335 C952.367161,194.216842 950.535498,196.617828 948.391112,199.782765 C946.246726,202.947702 943.923642,206.745626 945.554269,207.924292 C943.85663,208.862859 941.868606,211.91866 942.427039,207.70602 C941.957955,209.277575 941.466533,210.718167 940.952774,212.07145 C940.439015,213.424733 940.036943,214.712535 939.590196,215.934855 C938.674364,218.357669 937.758533,220.496729 936.932051,222.483 C935.115381,226.438434 934.347188,230.777173 934.698316,235.099092 C933.090026,236.190449 933.73781,231.934155 932.665617,232.916377 C932.766427,234.779744 932.349641,236.635067 931.4594,238.285855 C930.387207,239.377213 930.990315,236.103141 931.057327,234.051389 C930.306822,236.610429 929.813071,239.23479 929.583062,241.887335 C929.501166,243.521846 929.728336,245.157106 930.253183,246.711135 C931.003426,248.610684 932.510972,250.131063 934.430268,250.923775 C933.073716,253.310453 932.101796,255.887214 931.548749,258.563277 C931.309836,260.893181 931.552922,263.246241 932.263544,265.482483 C930.69993,267.534235 928.801255,271.157542 929.873448,263.037842 L928.443857,269.214925 L927.438677,273.711318 L926.679207,278.731562 C925.785713,285.279707 925.316628,291.173037 926.813231,291.544098 C926.129667,294.018498 925.970049,296.60318 926.344146,299.139946 L925.7187,305.360684 C925.562339,307.041374 925.540002,308.438312 925.47299,309.726113 C925.294291,312.498161 925.294291,315.248382 925.294291,320.203145 L925.830387,317.40927 C929.069303,321.403638 926.589857,325.747241 927.192966,333.845113 L926.835568,333.626841 C926.420348,336.745159 926.285808,339.893053 926.433496,343.034342 C926.488775,344.334349 926.660687,345.627109 926.947255,346.897748 C927.225497,348.153361 927.375151,349.432918 927.394002,350.717499 C927.394002,351.656066 927.394002,352.900214 927.394002,354.340806 C927.394002,355.781397 927.394002,357.702186 927.394002,360.037691 L929.382026,358.793544 C931.772123,359.382877 931.615761,363.442727 931.258364,368.703069 C930.900966,373.963412 930.900966,380.402421 932.732629,385.46632 L933.224051,381.450124 C934.430268,384.178518 933.871834,388.391158 933.023014,392.778414 C932.174195,397.165671 931.012653,401.727545 931.638099,404.630556 C931.638099,405.98384 930.409544,402.84073 929.694749,401.138212 C931.347713,416.875587 932.956002,402.404187 936.775689,413.317761 C935.971545,415.784229 932.308219,411.768034 934.340918,419.342055 C934.340918,421.371979 937.401135,426.414051 940.550702,432.220072 C942.329186,435.153634 943.947194,438.177303 945.397907,441.278339 C946.072459,442.735965 946.661627,444.229899 947.162558,445.752905 C947.676549,447.120764 948.065255,448.530511 948.3241,449.965544 C948.3241,447.368114 948.502799,444.836164 951.563016,449.354384 C952.598522,451.463346 953.450354,453.653807 954.109474,455.902529 L955.293354,459.744107 L956.67827,463.629339 C958.621619,468.758719 960.766005,473.757136 964.339981,476.048987 C964.585692,477.09669 964.51868,477.598715 964.339981,477.773332 C966.395017,480.2398 969.187186,484.539748 972.292078,488.27219 C974.535524,491.339155 977.204308,494.086556 980.221838,496.435544 C979.417693,498.618259 980.780272,501.586751 982.991669,504.860823 C985.529069,508.463752 988.416538,511.818871 991.613887,514.879485 C994.852803,518.088076 997.868346,521.209358 999.945719,523.610344 C1002.02309,526.011331 1002.93892,527.975774 1001.62102,529.00165 C1003.85476,531.380809 1005.9768,533.82545 1008.32223,536.1173 L1015.2468,542.971025 L1014.39799,543.080161 C1017.39275,546.529023 1020.84882,549.568439 1024.67317,552.116601 C1026.87445,553.564213 1029.24392,554.751195 1031.73177,555.652599 C1033.60811,557.835314 1031.59775,556.962228 1031.17334,557.049536 C1037.67351,563.423064 1041.26982,566.959062 1045.22353,569.447357 C1049.94051,572.482321 1054.98113,575.007273 1060.25657,576.977723 L1060.25657,579.640635 C1062.10757,580.555126 1063.81508,581.723818 1065.32715,583.111152 C1067.56088,584.988287 1070.6211,587.192829 1073.92703,589.659296 C1075.60233,590.903444 1077.36698,592.213073 1079.22098,593.500875 C1081.07498,594.788676 1083.10768,595.945515 1085.14038,597.102354 C1089.12277,599.535937 1093.37086,601.527276 1097.80566,603.039339 C1097.53761,603.170302 1097.00151,603.388573 1095.57192,603.039339 C1105.17698,606.55351 1115.4745,612.992518 1125.03489,617.598047 C1134.59527,622.203575 1143.17282,625.193895 1147.90833,622.618291 C1152.37581,623.491377 1156.84328,623.862439 1161.31075,624.473599 C1144.98214,619.300564 1164.72836,621.876168 1158.33988,618.733059 C1161.65967,619.496295 1164.83916,620.755238 1167.76624,622.465501 C1169.99998,623.687821 1170.35737,624.648216 1166.31431,623.840611 L1165.17511,623.120315 C1161.08737,626.569005 1185.5021,629.428361 1184.51925,631.851175 C1201.01323,634.986565 1217.67281,637.22366 1234.4209,638.55211 L1246.79579,639.272406 C1250.90586,639.381541 1255.01593,639.272406 1259.10367,639.403368 C1261.13637,639.403368 1263.19141,639.403368 1265.2241,639.403368 L1271.29986,639.097788 C1275.34292,638.814035 1279.38599,638.748554 1283.36203,638.224702 C1282.02179,637.307962 1280.70389,636.434876 1279.36365,635.452655 C1283.04931,635.168902 1286.71264,634.688704 1290.3983,634.317643 C1293.3915,634.688704 1294.6424,636.303913 1286.71264,637.155172 C1289.5044,637.557766 1292.35568,637.147814 1294.91044,635.976506 C1296.74965,635.422677 1298.43198,634.458755 1299.82466,633.160804 C1315.46081,631.763866 1294.4637,637.875468 1299.15454,637.133345 L1305.54302,635.780062 L1304.02408,635.670926 C1306.50353,634.579569 1307.7991,633.662828 1309.63076,632.855224 C1310.73065,632.379647 1311.86562,631.985645 1313.02604,631.676558 C1314.83202,631.125261 1316.66617,630.666269 1318.52102,630.301447 C1324.55211,629.602979 1322.00565,631.545595 1324.35107,631.130879 C1324.35107,631.349151 1325.19989,631.283669 1327.94739,630.410583 C1332.41486,629.341053 1337.06103,628.096905 1341.61785,626.961894 L1335.47507,626.045153 C1341.10409,623.229451 1348.14035,622.596464 1341.12642,621.679724 C1346.26402,622.421847 1358.86228,618.885849 1370.52238,614.171184 C1373.47091,613.101654 1376.28542,611.748371 1378.9659,610.569705 L1386.44891,607.208324 C1389.45068,605.642378 1392.55486,604.271569 1395.74125,603.10482 C1397.46122,601.72971 1399.22588,600.463735 1401.05754,599.263242 C1402.8892,598.062749 1404.67619,596.774947 1406.5972,595.574454 C1410.41689,593.173467 1414.66099,590.990752 1419.12846,588.218705 C1416.62667,589.157272 1413.78983,587.56389 1421.58556,583.089325 C1421.69725,584.748188 1422.72477,585.27204 1424.33306,584.857324 C1426.53356,584.261456 1428.6224,583.325629 1430.5205,582.085276 C1435.25602,579.247746 1441.10841,575.711748 1445.26316,575.01328 C1441.77853,575.908193 1446.82677,571.826516 1451.38359,567.919456 C1455.94041,564.012397 1459.69309,559.952547 1454.51082,561.786027 C1460.58658,557.267808 1456.29781,563.161138 1461.6141,560.476399 C1463.13304,558.773881 1464.83068,557.202326 1466.4613,555.499809 C1468.09193,553.797291 1469.85658,552.116601 1471.66591,550.457737 L1477.25024,545.437493 L1482.92393,540.133496 C1484.84494,538.34367 1486.85531,536.597498 1488.77632,534.698536 L1494.45,528.870687 C1498.32339,524.893979 1501.90618,520.656363 1505.17193,516.189114 C1504.76986,515.446991 1501.48627,517.629705 1503.54131,513.220621 C1507.09295,511.037907 1510.24251,508.527784 1513.74948,506.104971 C1514.49182,504.556554 1514.85143,502.859356 1514.79933,501.150208 C1514.93881,500.223383 1515.29835,499.341323 1515.84919,498.574605 C1516.75297,497.276658 1517.86998,496.13353 1519.15512,495.191397 C1517.97124,495.78073 1516.22892,496.653816 1517.61384,494.078212 C1531.26196,477.074863 1541.06806,456.972059 1548.88613,436.214441 C1556.7042,415.456822 1562.71295,394.240833 1569.8609,372.915709 C1567.29211,378.547113 1567.85054,374.5964 1568.61001,370.121834 C1567.73885,372.981191 1566.71134,369.7726 1565.54979,370.121834 C1567.31444,364.250331 1569.19078,358.313347 1570.77673,352.310881 C1569.43649,350.499227 1569.77155,345.609946 1570.10661,340.895282 C1570.28277,338.715961 1570.28277,336.526458 1570.10661,334.347137 C1569.97259,332.49183 1569.63753,331.116719 1568.94507,330.614695 L1569.30247,336.398889 C1567.71652,332.49183 1565.84018,335.132915 1563.71813,338.472468 C1561.59608,341.812022 1559.07196,345.850045 1557.01693,345.151576 C1557.73106,347.484552 1557.8157,349.958331 1557.26264,352.332708 C1556.54872,355.168724 1555.68383,357.966404 1554.6715,360.714333 C1553.63899,363.770342 1552.78874,366.882298 1552.12505,370.034525 C1551.40205,373.399394 1551.3641,376.870436 1552.01336,380.249631 C1550.62844,383.043506 1551.11987,377.477583 1549.77962,378.874521 C1551.05285,382.606963 1550.3604,386.754121 1547.81394,394.153525 L1547.56823,393.19313 L1546.71941,397.012881 C1546.40668,398.235202 1546.04929,399.392041 1545.71423,400.548879 C1545.04411,402.731594 1544.37399,404.914309 1543.7262,407.097024 C1542.45659,410.995089 1540.96511,414.820801 1539.25873,418.556277 C1537.69512,422.266892 1536.08683,426.064816 1533.96478,430.16832 C1531.84273,434.271824 1529.81003,438.89918 1526.88384,444.268658 L1529.56432,443.482881 C1528.21321,446.12028 1526.53252,448.583728 1524.56075,450.816803 C1524.94049,457.605046 1530.85989,437.611378 1531.82039,443.963078 C1529.52587,445.97596 1527.67845,448.427504 1526.39242,451.166037 C1524.51608,454.549246 1522.26001,458.478132 1520.18263,462.450673 C1518.25372,466.127364 1516.0591,469.665048 1513.61545,473.036841 C1511.38172,475.939851 1509.57239,477.991603 1507.85242,478.297183 C1503.38495,484.976291 1511.22536,477.598715 1506.80256,484.299649 L1504.56882,485.36918 L1504.88155,487.988437 C1503.71651,489.699411 1502.19397,491.14998 1500.41408,492.244731 C1499.14085,493.008682 1498.18034,493.183299 1497.62191,492.965027 C1498.579,491.610141 1499.44455,490.195645 1500.21304,488.73056 C1497.26223,491.665915 1494.70976,494.959695 1492.61834,498.53095 C1491.08295,501.127728 1489.31908,503.588939 1487.34673,505.886699 C1489.15605,504.053219 1491.01005,502.241566 1492.79704,500.364431 C1489.62514,504.729861 1486.09584,509.444525 1482.3655,513.984572 C1478.63516,518.524619 1474.56976,523.086493 1470.25865,527.342787 L1464.00419,533.890931 C1461.77046,536.073646 1459.73776,538.03809 1457.66039,540.111669 C1453.61733,544.367963 1449.44024,548.187714 1445.82159,552.160255 L1447.69793,551.854675 C1446.29067,553.338921 1445.06212,554.604895 1443.94525,555.630771 C1442.82839,556.656647 1441.71152,557.442425 1440.90737,558.140894 C1439.38854,559.302471 1437.79973,560.373928 1436.14952,561.349484 C1434.63058,562.244398 1433.13398,563.226619 1431.01193,564.536248 C1428.88988,565.845877 1426.27641,567.635703 1422.72477,570.385924 L1423.12684,569.818418 C1420.15145,573.168955 1416.61685,576.002901 1412.67296,578.200043 C1415.88954,574.816835 1404.22944,580.862955 1408.58523,576.628489 C1406.86525,578.025426 1405.41332,579.116784 1404.11776,579.968042 C1402.82219,580.819301 1402.01804,581.539597 1401.28091,582.150757 C1400.37966,582.851067 1399.56282,583.649248 1398.84614,584.529916 C1398.35472,585.141077 1398.06433,585.708582 1397.37188,586.712631 C1396.18315,588.334412 1394.82847,589.833669 1393.32881,591.187197 L1390.11224,590.968925 C1389.00874,592.26327 1387.83038,593.494878 1386.58293,594.657713 C1384.33654,596.486389 1381.84994,598.013273 1379.18927,599.19776 C1385.39906,594.832331 1372.84546,599.19776 1379.63602,594.286652 C1375.54913,595.230891 1371.57951,596.606822 1367.79722,598.390156 C1364.46896,599.852575 1361.63211,601.314994 1359.08566,602.755586 C1354.03741,605.549461 1349.88267,607.361114 1344.92377,606.269757 C1341.5285,609.7621 1345.59389,609.063632 1350.03903,607.797657 C1354.48416,606.531682 1358.97397,604.392622 1356.98594,605.767732 C1359.21968,605.767732 1357.79009,607.142843 1355.13194,608.823533 C1352.08199,610.493511 1348.83364,611.791031 1345.45987,612.686938 C1342.53368,613.625506 1339.60748,613.101654 1335.58676,612.686938 C1333.2754,612.492398 1330.9512,612.492398 1328.63985,612.686938 C1327.18618,612.801777 1325.73971,612.991207 1324.3064,613.254444 C1322.72045,613.472716 1321.02281,613.756469 1319.16881,614.193012 C1320.64307,613.887432 1320.66541,613.538197 1322.13968,613.21079 C1319.27359,613.44547 1316.46252,614.115617 1313.80784,615.19706 C1312.34607,615.700476 1310.85412,616.115969 1309.34037,616.441208 C1307.68054,616.716251 1305.99148,616.782271 1304.31447,616.637652 C1300.96387,619.977206 1295.37953,618.03459 1294.8211,621.657897 L1308.51389,618.449306 C1304.6942,619.56249 1301.12023,621.461452 1296.78678,623.098488 C1291.63323,624.969134 1286.15306,625.829494 1280.65921,625.630438 C1282.96655,624.327177 1285.4266,623.30114 1287.98587,622.574637 C1284.05449,621.985304 1280.72623,624.277154 1276.63849,623.491377 C1277.04056,621.788859 1281.23999,621.134045 1286.3329,620.370095 C1288.87936,619.999033 1291.67153,619.649799 1294.30734,619.147774 C1296.74819,618.619916 1299.11725,617.81408 1301.36594,616.746788 C1299.1322,616.353899 1295.44654,617.750837 1292.54269,618.449306 C1289.63883,619.147774 1287.76249,619.431527 1289.61649,617.314294 C1286.93601,620.042688 1283.18334,620.370095 1278.9169,620.610193 C1274.11956,620.33168 1269.31765,621.076479 1264.84437,622.792908 L1265.4028,620.610193 C1262.85218,621.509295 1260.18061,622.038758 1257.47304,622.181748 L1262.767,619.366046 C1254.54685,621.832514 1246.81813,617.903627 1238.93304,618.776713 C1247.19786,618.973157 1248.13603,619.584317 1247.86798,620.391922 C1247.59993,621.199526 1246.12567,622.269057 1249.67731,622.945698 C1228.90357,625.346685 1237.90552,617.685355 1215.1661,616.921405 C1218.24865,616.921405 1226.6475,619.10412 1221.71094,619.671626 C1219.37668,619.301145 1217.065,618.80565 1214.78637,618.18738 C1212.86926,617.644068 1211.01327,616.912779 1209.2467,616.004665 C1194.16899,614.564073 1211.2794,618.405651 1204.77923,618.864021 C1199.9767,615.808221 1197.22921,618.864021 1190.41631,618.427479 L1190.77371,616.244764 C1188.674,615.699085 1186.9987,615.349851 1185.6808,615.153406 C1184.67557,614.929085 1183.65099,614.797545 1182.62058,614.760518 C1181.64035,614.683135 1180.66654,614.971725 1179.89542,615.568122 C1178.75622,616.397554 1177.79571,617.226985 1170.29036,614.716863 L1177.48299,613.341753 C1174.78017,612.970691 1172.03267,612.686938 1169.35219,612.228568 C1170.11166,611.595581 1170.84879,611.006248 1171.58593,610.329606 C1168.16048,610.180142 1164.76099,609.675281 1161.44477,608.823533 C1158.20413,607.918888 1155.04415,606.758224 1151.99607,605.353016 C1153.448,607.404768 1149.76234,608.627089 1142.30166,606.247929 C1137.83419,603.301264 1145.74161,605.462152 1135.42176,601.8825 C1136.89512,601.617191 1138.40048,601.565706 1139.88923,601.72971 C1141.83715,602.106804 1143.63924,603.006165 1145.09383,604.32714 C1145.78629,603.825116 1147.84132,603.846943 1148.53378,603.344919 C1143.6419,600.376426 1135.44409,598.237366 1131.75843,596.796774 C1133.07662,597.329515 1134.33432,597.99521 1135.5111,598.783045 C1132.89763,598.28102 1130.23949,597.82265 1127.62602,597.276971 L1119.80795,595.421664 C1117.8646,593.697319 1119.94197,593.91559 1122.04168,594.133862 C1119.04848,593.020677 1116.54669,593.15164 1112.25792,591.209024 C1114.11192,590.204975 1114.62568,588.589766 1120.96949,590.488728 C1116.12228,589.157272 1111.45378,587.4111 1106.71826,585.774064 C1106.15983,584.704534 1100.91055,580.513721 1102.94325,580.841128 C1098.81465,578.27361 1094.3816,576.20666 1089.74187,574.685872 C1084.53661,572.694467 1079.67113,569.941951 1075.31194,566.522519 C1073.94046,566.242761 1072.63637,565.709331 1071.46992,564.950964 C1069.41488,563.401236 1067.49387,561.807855 1065.57286,560.2363 C1063.65185,558.664745 1061.90953,556.874919 1059.98852,555.216056 C1058.06751,553.557192 1056.03481,551.96381 1053.82341,550.370429 C1051.5349,548.60485 1049.11586,547.007109 1046.58611,545.590283 C1045.53625,543.407568 1044.35237,541.224853 1043.50355,538.823867 C1036.08755,532.865055 1047.6583,548.034924 1035.23873,538.059917 C1030.77126,534.567573 1030.45854,533.388907 1031.01698,532.646784 C1031.57541,531.904661 1032.91565,531.686389 1031.84346,529.983872 C1028.5087,528.169818 1025.30004,526.142767 1022.2384,523.915924 C1018.33947,520.890829 1015.13541,517.098087 1012.83437,512.784078 C1015.05946,514.979744 1017.1551,517.297155 1019.11117,519.725112 Z M865.835907,462.826301 C866.416678,463.83035 867.399521,465.270941 868.069642,466.711533 C868.911155,467.808415 869.323176,469.163354 869.231184,470.531284 C867.916324,469.986901 866.917585,468.898982 866.506027,467.562792 C866.191347,465.997586 865.967615,464.416225 865.835907,462.826301 L865.835907,462.826301 Z M853.528026,287.161407 C853.470413,289.662159 852.696558,292.097054 851.294291,294.189749 C851.669627,291.749794 852.422831,289.379875 853.528026,287.161407 Z M1261.58676,62.341775 L1261.29638,62.341775 C1256.35982,59.9626158 1258.10213,60.879356 1261.58676,62.4290836 L1261.58676,62.341775 Z M1271.97363,67.0127848 C1273.13517,67.1437477 1273.17985,66.8381676 1272.84479,66.4016247 C1270.74049,66.204186 1268.70154,65.5797082 1266.85838,64.5681442 C1267.41681,65.3539215 1268.57835,66.3361432 1271.97363,67.1000934 L1271.97363,67.0127848 Z M1232.83859,672.148657 L1230.60486,672.148657 C1235.25102,670.44614 1234.02247,671.275571 1232.83859,672.148657 Z" id="Shape"></path>
            </g>
        </g>
    </g>
</svg>
