<?xml version="1.0" encoding="utf-8"?>
<!-- Generator: Adobe Illustrator 21.1.0, SVG Export Plug-In . SVG Version: 6.00 Build 0)  -->
<svg version="1.1" id="Layer_1" xmlns="http://www.w3.org/2000/svg" xmlns:xlink="http://www.w3.org/1999/xlink" x="0px" y="0px"
	 viewBox="0 0 1296 1728" style="enable-background:new 0 0 1296 1728;" xml:space="preserve">
<style type="text/css">
	.st0{fill:#FFFFFF;}
</style>
<g>
	<path class="st0" d="M654.4,881c-0.1,0.2-0.3,0.4-0.4,0.6c0.5,0.2,1,0.7,1.5,0.7c2.7,0.2,5.4,0.2,8.1,0.6c7.9,1.1,11.1,4.5,12,12.4
		c0.1,0.6,0.1,1.2,0.1,1.8c0,11.4,0.1,22.8,0,34.2c0,2.5-0.4,5-0.8,7.5c-1.5,8.4-5.9,14.5-14.6,16.6c-2.3,0.6-4.7,0.8-7.1,1
		c-9.2,0.8-16.2-2.7-21.2-10.4c-2.7-4.1-4.4-8.6-5.6-13.4c-2.9-11.4-3.4-23-3.4-34.6c-0.1-26.9,0-53.9,0-80.8c0-0.6,0-1.3,0-2.1
		c7.4,0,14.6,0,21.7,0c0.6-1.6-0.2-1.7-1.4-1.7c-6.1,0-12.2,0-18.4,0c-0.6,0-1.3-0.1-2-0.1c0-15.3,0-30.4,0-45.5
		c-1.4-0.1-1.5-0.1-1.7,1.3c-1.3,9.9-5.7,18.3-13.2,24.9c-12.8,11.3-27.6,18.1-44.7,19.3c-1.3,0.1-2,0.3-1.3,1.9c4,0,8.1,0,12.2,0
		c0,1,0,1.7,0,2.5c0,23.5,0,46.9,0,70.4c0,9.6,1.2,19,3.9,28.2c5,16.9,15,29.5,31.5,36.3c14,5.8,28.7,6.4,43.5,5.6
		c7.8-0.4,14.9-3.4,21.6-7.4c3.8-2.2,7.5-4.6,11.3-6.7c5.5-3.1,11.3-4.4,17.7-3.6c7.2,0.9,12.2,4.5,14.4,11.7c0.3,1,0.5,2,0.8,2.9
		c0.1,0.3,0.6,0.5,0.9,0.8c0.2-0.3,0.5-0.6,0.6-0.9c0.1-0.5,0-1,0-1.4c0-17.9,0-35.9,0-53.8c0-1.7,0.1-3.5,0.2-5.2
		c0.7-7.7,4.1-11.2,11.8-11.9c1.6-0.1,3.1,0,4.7-0.2c0.4,0,0.8-0.5,1.2-0.8c-0.1-0.2-0.2-0.3-0.3-0.5C710.3,881,682.3,881,654.4,881
		z"/>
	<path d="M654.4,881c27.9,0,55.9,0,83.8,0c0.1,0.2,0.2,0.3,0.3,0.5c-0.4,0.3-0.8,0.8-1.2,0.8c-1.5,0.1-3.1,0-4.7,0.2
		c-7.7,0.7-11.1,4.2-11.8,11.9c-0.1,1.7-0.2,3.5-0.2,5.2c0,17.9,0,35.9,0,53.8c0,0.5,0.1,1,0,1.4c-0.1,0.3-0.4,0.6-0.6,0.9
		c-0.3-0.3-0.8-0.4-0.9-0.8c-0.4-0.9-0.5-2-0.8-2.9c-2.2-7.1-7.2-10.7-14.4-11.7c-6.3-0.8-12.2,0.5-17.7,3.6
		c-3.8,2.2-7.5,4.5-11.3,6.7c-6.7,4-13.7,7-21.6,7.4c-14.8,0.8-29.5,0.2-43.5-5.6c-16.5-6.8-26.5-19.4-31.5-36.3
		c-2.7-9.2-3.9-18.6-3.9-28.2c0-23.5,0-46.9,0-70.4c0-0.8,0-1.6,0-2.5c-4.1,0-8.2,0-12.2,0c-0.7-1.6,0-1.8,1.3-1.9
		c17.2-1.2,32-8,44.7-19.3c7.5-6.6,11.9-15,13.2-24.9c0.2-1.4,0.2-1.4,1.7-1.3c0,15.1,0,30.2,0,45.5c0.8,0,1.4,0.1,2,0.1
		c6.1,0,12.2,0,18.4,0c1.2,0,2,0.1,1.4,1.7c-7.1,0-14.3,0-21.7,0c0,0.8,0,1.4,0,2.1c0,26.9-0.1,53.9,0,80.8
		c0.1,11.6,0.5,23.3,3.4,34.6c1.2,4.7,2.9,9.2,5.6,13.4c5,7.8,12,11.3,21.2,10.4c2.4-0.2,4.8-0.4,7.1-1c8.7-2.1,13.1-8.1,14.6-16.6
		c0.4-2.5,0.8-5,0.8-7.5c0.1-11.4,0-22.8,0-34.2c0-0.6-0.1-1.2-0.1-1.8c-0.9-7.9-4.1-11.3-12-12.4c-2.7-0.4-5.4-0.4-8.1-0.6
		c-0.5,0-1-0.5-1.5-0.7C654.1,881.4,654.2,881.2,654.4,881z"/>
</g>
</svg>
