<?xml version="1.0" encoding="utf-8"?>
<!-- Generator: Adobe Illustrator 21.1.0, SVG Export Plug-In . SVG Version: 6.00 Build 0)  -->
<svg version="1.1" id="Layer_1" xmlns="http://www.w3.org/2000/svg" xmlns:xlink="http://www.w3.org/1999/xlink" x="0px" y="0px"
	 viewBox="0 0 1920 1080" style="enable-background:new 0 0 1920 1080;" xml:space="preserve">
<style type="text/css">
	.st0{clip-path:url(#SVGID_2_);}
	.st1{fill:#FEFEFE;}
	.st2{fill:#F68F1E;}
	.st3{fill:#A6A8AB;}
	.st4{fill:#A7A9AC;}
	.st5{font-family:'PTMono-Regular';}
	.st6{font-size:200px;}
</style>
<g>
	<defs>
		<rect id="SVGID_1_" x="652" y="322" width="617" height="435"/>
	</defs>
	<clipPath id="SVGID_2_">
		<use xlink:href="#SVGID_1_"  style="overflow:visible;"/>
	</clipPath>
	<g class="st0">
		<path class="st1" d="M980.5,752.2c-101.5,0-203,0-304.4,0.1c-3.2,0-4.2-0.3-4.2-4c0.1-142.5,0.1-284.9,0-427.4
			c0-3.2,0.9-3.8,3.9-3.8c203.1,0.1,406.2,0.1,609.4,0c3.7,0,3.9,1.1,3.9,4.3c-0.1,142.3-0.1,284.6,0,426.9c0,3.5-0.8,4-4.1,4
			C1183.5,752.2,1082,752.2,980.5,752.2z"/>
		<path class="st2" d="M875,391.4c0-8.9,0.1-16.5-0.1-24.1c-0.1-2.8,0.8-3.8,3.6-3.7c8.8,0.2,17.7,0.3,26.5-0.1
			c4.8-0.2,4.8,2.1,4.8,5.7c-0.1,72.3,0,144.6-0.1,216.9c0,17.3,0.7,34.6-2.8,51.8c-8.6,42.8-42.8,72.8-86.6,75.4
			c-19,1.1-37.6,0.1-55.4-7.1c-13-5.2-24-13.5-34.5-22.7c-1.8-1.6-1.8-2.7-0.1-4.4c6.2-6,12.5-12,18.5-18.3c2.3-2.3,3.6-1.2,5.3,0.4
			c8,7.1,16.3,14.2,26.7,17.1c25.6,7.3,50.6,7.5,72.1-11c13.9-12,19.1-28.6,20.7-46.2c1.4-15.3,0.4-30.6,0.5-46
			c0-0.4-0.3-0.8-0.6-1.7c-4.2,4.4-8,8.8-12.5,12.5c-17.8,14.8-38.8,18.5-61,16.9c-24.5-1.8-45.5-10.9-60-31.9
			c-8.6-12.6-13.4-26.7-16.4-41.5c-1.3-6.4-4-13.3-2-19.1c1.8-5.1,7.8-8.8,12-13c6.7-6.7,13.4-13.4,20.2-20.1
			c0.2-0.2,0.6-0.1,1.4-0.3c0.1,11.3-0.1,22.6,1.4,33.8c1.5,11.6,3.9,23,9.4,33.4c7.9,15.1,20.4,23.6,37.3,26.1
			c9,1.3,17.9,1.2,26.8-0.7c21.3-4.5,33.4-18.8,38.5-38.9c8.1-32.7,8-65.7-0.1-98.3c-4.1-16.4-13.3-29.4-29.7-36
			c-2.9-1.2-2.2-2.1-0.6-3.7c5.6-5.5,11.2-11,16.6-16.6c1.7-1.8,2.8-1.4,4.5,0C865.1,380.3,869.7,385.3,875,391.4z"/>
		<path d="M951,535.4c0-34.8,0.1-69.6-0.1-104.4c0-3.8,0.8-5,4.8-4.9c14,0.3,28,0.2,42,0c3.3,0,4.8,0.5,4.5,4.2
			c-0.4,4.5-0.4,9,0,13.5c0.4,4.1-1.3,4.6-4.7,4.5c-6.8-0.3-13.7,0-20.5-0.1c-2.8-0.1-4,0.3-4,3.7c0.1,56,0.1,111.9,0,167.9
			c0,2.8,0.6,3.7,3.5,3.6c7.5-0.2,15,0,22.5-0.1c2.3,0,3.2,0.5,3.1,3c-0.2,5.3-0.2,10.7,0,16c0.1,2.3-0.5,3.2-3,3.1
			c-15-0.1-30-0.2-45,0c-4,0.1-3.1-2.3-3.1-4.5c0-34.5,0-68.9,0-103.4C951,536.8,951,536.1,951,535.4z"/>
		<path d="M1235,536c0,34.8-0.1,69.6,0.1,104.4c0,3.8-0.8,5-4.8,4.9c-14-0.3-28-0.2-42,0c-3.3,0-4.8-0.5-4.5-4.2
			c0.4-4.5,0.4-9,0-13.5c-0.4-4.1,1.3-4.6,4.7-4.5c6.8,0.3,13.7,0,20.5,0.1c2.8,0.1,4-0.3,4-3.7c-0.1-56-0.1-111.9,0-167.9
			c0-2.8-0.6-3.7-3.5-3.6c-7.5,0.2-15,0-22.5,0.1c-2.3,0-3.2-0.5-3.1-3c0.2-5.3,0.2-10.7,0-16c-0.1-2.3,0.5-3.2,3-3.1
			c15,0.1,30,0.2,45,0c4-0.1,3.1,2.3,3.1,4.5c0,34.5,0,68.9,0,103.4C1235,534.7,1235,535.3,1235,536z"/>
		<path class="st3" d="M814.8,497.1c13.2,0,26.3,0.1,39.5-0.1c3.6,0,5.1,0.7,4.8,4.7c-1.1,12.3-2.6,24.5-8.3,35.7
			c-6.1,12.1-16,18.3-29.5,18.8c-5.6,0.2-11.3,0.5-16.9-0.5c-15.2-2.6-23.8-12.5-28.3-26.4c-3-9.2-4.6-18.7-5.2-28.3
			c-0.2-3.7,1.1-4,4.1-4C788.2,497.2,801.5,497.1,814.8,497.1z"/>
		<path class="st3" d="M772.4,478.9c4.2-4.7,2.6-8.9,1.1-13.6c-2.6-7.9,1.5-16.7,8.5-20.6c7.5-4.2,16.8-3.2,22.7,2.6
			c5.9,5.7,7.2,15.2,3.1,22.6c-4,7.3-12.5,11-20.9,9C783.4,478.2,776.6,478,772.4,478.9z"/>
		<path class="st3" d="M764.4,445.1c-3.3-1.1-5.4-2.9-8.6-1.4c-5.9,2.7-12,0.5-15.7-4.8c-3.2-4.6-2.8-11.1,1-15.8
			c3.7-4.5,10.3-5.9,15.8-3.3c5.3,2.5,8.4,8.4,6.9,14.6C763,437.9,762.1,441.1,764.4,445.1z"/>
		<path class="st4" d="M778.2,380.2c4.7,0.1,8.6,3.9,8.5,8.6c-0.1,4.3-4,8.3-8.3,8.3c-5.7,0-8.4-2.7-8.5-8.4
			C769.9,383.6,773.3,380.2,778.2,380.2z"/>
		<path class="st1" d="M1181.2,554.9c0,24.1-18.9,39.1-42.2,33c-13.7-3.6-20.6-13.5-22.6-27c-4.8-32.4,22-45.2,43.5-38.7
			C1173.3,526.3,1181.2,538.6,1181.2,554.9z"/>
	</g>
</g>
<text transform="matrix(1 0 0 1 975 609)" class="st5 st6">46</text>
</svg>
