<svg id="Layer_1" data-name="Layer 1" xmlns="http://www.w3.org/2000/svg" viewBox="0 0 52.75 54.72"><defs><style>.cls-1{fill:#57abc1;}.cls-2{fill:none;stroke-linecap:round;stroke-width:5px;}.cls-2,.cls-4{stroke:#556080;stroke-miterlimit:10;}.cls-3{fill:#7ccbd8;}.cls-4{fill:#556080;stroke-width:0.5px;}</style></defs><title>glass2</title><circle class="cls-1" cx="21.25" cy="21.25" r="20"/><line class="cls-2" x1="34.7" y1="36.05" x2="50.25" y2="52.22"/><path class="cls-3" d="M119.52,279.88a19.86,19.86,0,0,0,4.17,7.15l28.21-28.21a19.86,19.86,0,0,0-7.15-4.17Z" transform="translate(-117.25 -252.38)"/><path class="cls-4" d="M138.5,294.63a21,21,0,1,1,21-21A21,21,0,0,1,138.5,294.63Zm0-40a19,19,0,1,0,19,19A19,19,0,0,0,138.5,254.63Z" transform="translate(-117.25 -252.38)"/></svg>