<svg id="Layer_1" data-name="Layer 1" xmlns="http://www.w3.org/2000/svg" viewBox="0 0 64.2 54.92"><defs><style>.cls-1{fill:#ffdb6f;}.cls-2{fill:#f27258;}.cls-3{fill:#e4f5f4;}.cls-4{fill:#31ccc9;}.cls-5{fill:#201f2e;}.cls-6{fill:#57abc1;opacity:0.69;}.cls-7{fill:none;stroke-linecap:round;stroke-width:4px;}.cls-7,.cls-9{stroke:#556080;stroke-miterlimit:10;}.cls-8{fill:#7ccbd8;opacity:0.78;}.cls-9{fill:#556080;}</style></defs><title>sitespylogo</title><path class="cls-1" d="M218.67,243.42v7.26a.87.87,0,0,1-.89.86H163.09a.87.87,0,0,1-.89-.86v-7.26Zm-26.73,4.41a1.43,1.43,0,0,0,0-.35,1.55,1.55,0,0,0-3.08-.21,1.43,1.43,0,0,0,0,.35,1.55,1.55,0,0,0,3.08.21Z" transform="translate(-157.33 -209.16)"/><path class="cls-2" d="M218.67,214.28v26.37H162.2V214.28a.87.87,0,0,1,.89-.86h54.69A.87.87,0,0,1,218.67,214.28ZM208.33,229a3.11,3.11,0,0,0,0-3.93,1.32,1.32,0,0,0-1.81-.22,1.21,1.21,0,0,0-.18.16l-.94-1a1.26,1.26,0,0,0,.18-.16,1.21,1.21,0,0,0-.11-1.76l-.66-.54a23.25,23.25,0,0,0-14.37-4.95,22.86,22.86,0,0,0-17.89,8.43,3.11,3.11,0,0,0,0,3.93,23.21,23.21,0,0,0,35.79,0Z" transform="translate(-157.33 -209.16)"/><path class="cls-3" d="M205.4,224l.94,1a1.21,1.21,0,0,0,0,1.59.69.69,0,0,1,0,.87,20,20,0,0,1-7,5.51,10.06,10.06,0,0,0,0-11.87,20.08,20.08,0,0,1,3.88,2.4l.58.48A1.33,1.33,0,0,0,205.4,224Z" transform="translate(-157.33 -209.16)"/><path class="cls-3" d="M197.73,261.32h-14.6a7,7,0,0,0,1.56-4.38V254.3h11.47v2.63A7,7,0,0,0,197.73,261.32Z" transform="translate(-157.33 -209.16)"/><path class="cls-4" d="M190.44,219.13a7.91,7.91,0,1,1-8.2,7.91A8.07,8.07,0,0,1,190.44,219.13Zm4.3,7.91a4.31,4.31,0,1,0-4.3,4.15A4.23,4.23,0,0,0,194.74,227Z" transform="translate(-157.33 -209.16)"/><path class="cls-3" d="M190.44,227a1.66,1.66,0,1,1-1.72,1.66A1.7,1.7,0,0,1,190.44,227Z" transform="translate(-157.33 -209.16)"/><path class="cls-5" d="M217.78,210.66H163.09a3.69,3.69,0,0,0-3.76,3.62v36.4a3.69,3.69,0,0,0,3.76,3.62h18.74v2.63a4.47,4.47,0,0,1-4.54,4.38h-4.13a1.38,1.38,0,1,0,0,2.76h34.56a1.38,1.38,0,1,0,0-2.76h-4.13a4.47,4.47,0,0,1-4.54-4.38V254.3h18.74a3.69,3.69,0,0,0,3.76-3.62v-36.4A3.69,3.69,0,0,0,217.78,210.66Zm.89,40a.87.87,0,0,1-.89.86H163.09a.87.87,0,0,1-.89-.86v-7.26h56.47v7.26Zm-35.53,10.63a7,7,0,0,0,1.56-4.38V254.3h11.47v2.63a7,7,0,0,0,1.56,4.38Zm-20.94-47a.87.87,0,0,1,.89-.86h54.69a.87.87,0,0,1,.89.86v26.37H162.2Z" transform="translate(-157.33 -209.16)"/><path class="cls-5" d="M206.52,224.85a1.23,1.23,0,0,0-.23,1.75.69.69,0,0,1,0,.87,20,20,0,0,1-7,5.51,10.06,10.06,0,0,0,0-11.87,20.08,20.08,0,0,1,3.88,2.4l.58.48a1.33,1.33,0,0,0,1.64.05,1.26,1.26,0,0,0,.18-.16,1.21,1.21,0,0,0-.11-1.76l-.66-.54a23.25,23.25,0,0,0-14.37-4.95,22.86,22.86,0,0,0-17.89,8.43,3.11,3.11,0,0,0,0,3.93,23.21,23.21,0,0,0,35.79,0,3.11,3.11,0,0,0,0-3.93A1.32,1.32,0,0,0,206.52,224.85Zm-31.94,1.75a20,20,0,0,1,7-5.51,10.06,10.06,0,0,0,0,11.9,20,20,0,0,1-7-5.51A.69.69,0,0,1,174.58,226.6Zm7.65.44a8.21,8.21,0,1,1,8.2,7.91A8.07,8.07,0,0,1,182.23,227Z" transform="translate(-157.33 -209.16)"/><path class="cls-5" d="M194.74,227a4.31,4.31,0,1,0-4.3,4.15A4.23,4.23,0,0,0,194.74,227Zm-6,0a1.72,1.72,0,1,1,1.72,1.66A1.7,1.7,0,0,1,188.71,227Z" transform="translate(-157.33 -209.16)"/><path class="cls-5" d="M190.44,249a1.54,1.54,0,0,0,1.5-1.14,1.43,1.43,0,0,0,0-.35,1.55,1.55,0,0,0-3.08-.21,1.6,1.6,0,0,0,0,.21A1.52,1.52,0,0,0,190.44,249Z" transform="translate(-157.33 -209.16)"/><path class="cls-3" d="M181.6,221.09a10.06,10.06,0,0,0,0,11.9,20,20,0,0,1-7-5.51.69.69,0,0,1,0-.87A20,20,0,0,1,181.6,221.09Z" transform="translate(-157.33 -209.16)"/><ellipse class="cls-6" cx="32.96" cy="18.96" rx="17.47" ry="17.58"/><line class="cls-7" x1="2" y1="52.16" x2="21.21" y2="31.96"/><path class="cls-8" d="M184.84,211.43a17.32,17.32,0,0,0-6.24,3.66l24.64,24.8a17.48,17.48,0,0,0,3.64-6.28Z" transform="translate(-157.33 -209.16)"/><path class="cls-9" d="M172,228.12a18.34,18.34,0,1,1,18.34,18.46A18.42,18.42,0,0,1,172,228.12Zm1.75,0a16.59,16.59,0,1,0,16.59-16.7A16.66,16.66,0,0,0,173.7,228.12Z" transform="translate(-157.33 -209.16)"/></svg>