<?xml version="1.0" encoding="utf-8"?>
<!-- Generator: Adobe Illustrator 21.1.0, SVG Export Plug-In . SVG Version: 6.00 Build 0)  -->
<svg version="1.1" id="Layer_1" xmlns="http://www.w3.org/2000/svg" xmlns:xlink="http://www.w3.org/1999/xlink" x="0px" y="0px"
	 viewBox="0 0 617 435" style="enable-background:new 0 0 617 435;" xml:space="preserve">
<style type="text/css">
	.st0{clip-path:url(#SVGID_2_);}
	.st1{fill:#F68F1E;}
	.st2{fill:#A6A8AB;}
	.st3{fill:#A7A9AC;}
	.st4{fill:#FEFEFE;}
</style>
<title>46</title>
<g>
	<defs>
		<rect id="SVGID_1_" width="617" height="435"/>
	</defs>
	<clipPath id="SVGID_2_">
		<use xlink:href="#SVGID_1_"  style="overflow:visible;"/>
	</clipPath>
	<g class="st0">
		<path class="st1" d="M204,75.2c0-8.9,0.1-16.5-0.1-24.1c-0.1-2.8,0.8-3.8,3.6-3.7c8.8,0.2,17.7,0.3,26.5-0.1
			c4.8-0.2,4.8,2.1,4.8,5.7c-0.1,72.3,0,144.6-0.1,216.9c0,17.3,0.7,34.6-2.8,51.8c-8.6,42.8-42.8,72.8-86.6,75.4
			c-19,1.1-37.6,0.1-55.4-7.1c-13-5.2-24-13.5-34.5-22.7c-1.8-1.6-1.8-2.7-0.1-4.4c6.2-6,12.5-12,18.5-18.3c2.3-2.3,3.6-1.2,5.3,0.4
			c8,7.1,16.3,14.2,26.7,17.1c25.6,7.3,50.6,7.5,72.1-11c13.9-12,19.1-28.6,20.7-46.2c1.4-15.3,0.4-30.6,0.5-46
			c0-0.4-0.3-0.8-0.6-1.7c-4.2,4.4-8,8.8-12.5,12.5c-17.8,14.8-38.8,18.5-61,16.9c-24.5-1.8-45.5-10.9-60-31.9
			c-8.6-12.6-13.4-26.7-16.4-41.5c-1.3-6.4-4-13.3-2-19.1c1.8-5.1,7.8-8.8,12-13c6.7-6.7,13.4-13.4,20.2-20.1
			c0.2-0.2,0.6-0.1,1.4-0.3c0.1,11.3-0.1,22.6,1.4,33.8c1.5,11.6,3.9,23,9.4,33.4c7.9,15.1,20.4,23.6,37.3,26.1
			c9,1.3,17.9,1.2,26.8-0.7c21.3-4.5,33.4-18.8,38.5-38.9c8.1-32.7,8-65.7-0.1-98.3c-4.1-16.4-13.3-29.4-29.7-36
			c-2.9-1.2-2.2-2.1-0.6-3.7c5.6-5.5,11.2-11,16.6-16.6c1.7-1.8,2.8-1.4,4.5,0C194.1,64.1,198.7,69,204,75.2z"/>
		<path d="M280,219.2c0-34.8,0.1-69.6-0.1-104.4c0-3.8,0.8-5,4.8-4.9c14,0.3,28,0.2,42,0c3.3,0,4.8,0.5,4.5,4.2
			c-0.4,4.5-0.4,9,0,13.5c0.4,4.1-1.3,4.6-4.7,4.5c-6.8-0.3-13.7,0-20.5-0.1c-2.8-0.1-4,0.3-4,3.7c0.1,56,0.1,111.9,0,167.9
			c0,2.8,0.6,3.7,3.5,3.6c7.5-0.2,15,0,22.5-0.1c2.3,0,3.2,0.5,3.1,3c-0.2,5.3-0.2,10.7,0,16c0.1,2.3-0.5,3.2-3,3.1
			c-15-0.1-30-0.2-45,0c-4,0.1-3.1-2.3-3.1-4.5c0-34.5,0-68.9,0-103.4C280,220.6,280,219.9,280,219.2z"/>
		<path d="M564,219.8c0,34.8-0.1,69.6,0.1,104.4c0,3.8-0.8,5-4.8,4.9c-14-0.3-28-0.2-42,0c-3.3,0-4.8-0.5-4.5-4.2
			c0.4-4.5,0.4-9,0-13.5c-0.4-4.1,1.3-4.6,4.7-4.5c6.8,0.3,13.7,0,20.5,0.1c2.8,0.1,4-0.3,4-3.7c-0.1-56-0.1-111.9,0-167.9
			c0-2.8-0.6-3.7-3.5-3.6c-7.5,0.2-15,0-22.5,0.1c-2.3,0-3.2-0.5-3.1-3c0.2-5.3,0.2-10.7,0-16c-0.1-2.3,0.5-3.2,3-3.1
			c15,0.1,30,0.2,45,0c4-0.1,3.1,2.3,3.1,4.5c0,34.5,0,68.9,0,103.4C564,218.4,564,219.1,564,219.8z"/>
		<path class="st1" d="M523.1,231.1c-2.2-18.4-15.4-32.9-33.7-36.9c-19-4.2-37,3.5-47.5,21.1c0.4-13.7,2.7-25.5,9.8-35.9
			c12.4-18.2,40.5-20.1,52.4-8c1.8,1.9,2.9,1.2,4.5-0.2c7.2-6,7.2-6.2-0.4-11.5c-1.6-1.1-3.4-2.1-5.2-3
			c-20.1-9.6-52.7-5.2-66.3,26.6c-10.5,24.4-9.9,49.5,0,73.9c8.4,20.8,27.9,30.5,50,26.2C512.6,278.5,526.4,258.7,523.1,231.1z
			 M511.3,239c-0.9,5.3-0.6,10.2-2.5,15.4c-1.5,4-4.4,8.2-7.6,11c-7.9,6.7-17.5,8.3-27.6,7.5c-0.1,0-0.3,0-0.4-0.1
			c-0.5,0-1-0.1-1.6-0.2c-7.5-2.4-15-5.5-18.7-12.8c-3.4-6.7-5.1-14.8-5.5-22.4c-0.2-0.5-0.3-1.1-0.3-1.7
			c0.2-12.4,8.9-25.2,21.3-28.4c0.6-0.2,1.2-0.2,1.7-0.2c0.2-0.1,0.3-0.1,0.5-0.1c4.4-1,9-1.7,13.5-1.2c3.1,0.4,7,0.9,9.5,3
			c0.9,0.3,1.7,0.8,2.5,1.4c9.9,4.9,14.5,16.4,15.1,27C511.4,237.7,511.4,238.3,511.3,239z"/>
		<path class="st2" d="M143.8,180.9c13.2,0,26.3,0.1,39.5-0.1c3.6,0,5.1,0.7,4.8,4.7c-1.1,12.3-2.6,24.5-8.3,35.7
			c-6.1,12.1-16,18.3-29.5,18.8c-5.6,0.2-11.3,0.5-16.9-0.5c-15.2-2.6-23.8-12.5-28.3-26.4c-3-9.2-4.6-18.7-5.2-28.3
			c-0.2-3.7,1.1-4,4.1-4C117.2,181,130.5,180.9,143.8,180.9z"/>
		<path class="st1" d="M404.8,270.7c-0.7,0-1.3,0-2,0c-11.5,0-11.6,0-11.5-11.4c0-4.3-1.8-9.8,0.8-12.6c2.9-3,8.5-0.8,12.9-1
			c8-0.3,6.7,1.3,7-7.3c0.1-3.4-0.6-4.8-4.3-4.5c-3.6,0.3-7.3-0.2-11,0.1c-4.2,0.4-5.8-0.7-5.6-5.4c0.4-11.5,0.1-23,0.1-34.5
			c0-9.8,0-19.6,0-29.5c0-10.1,0-9.8-10.2-10.2c-4.8-0.2-7.7,1.2-10.5,5.4c-15.1,23-30.4,45.7-45.9,68.4c-2.7,3.9-3.8,7.8-3.8,12.5
			c0,3.9,1.1,5,5,5c16-0.2,32,0,48-0.2c3.2,0,4.4,0.7,4.3,4.1c-0.3,5.6-0.2,11.3,0,17c0.1,3-0.7,4.2-3.9,4c-4.5-0.2-9,0-13.5-0.1
			c-2.6-0.1-3.6,0.9-3.4,3.5c0.1,1.7,0.1,3.3,0,5c-0.1,2.2,0.8,2.9,2.9,2.9c16.3-0.1,32.6,0,49,0c1.3,0,2.5,0.2,2.9-1.8
			C413.6,272.9,412,270.7,404.8,270.7z M377.6,210.1c0.1,3.4-0.3,6.9-0.2,10.3c0.1,2,0.4,3.9-0.1,5.9c0,0.1-0.1,0.2-0.1,0.3
			c1.2,3-0.3,7.1-4.4,7.1c-1.5,0-2.7-0.6-3.5-1.4c-0.7,0.1-1.5,0.1-2.2,0.1c-3.5,0.1-6.8,0.6-10.3,0.9c-3.2,0.2-6.5-0.8-9.7,0
			c-0.1,0-0.2,0-0.3,0.1c-0.6,0.2-1.2,0.4-2,0.4c-5.3,0-6.2-6.8-2.8-9.2c1-1.7,2.4-3.1,3.6-4.9c1.6-2.2,2.6-4.7,4-6.9
			c1.5-2.3,3.5-4.2,4.9-6.5c1.5-2.4,2.9-5,4.4-7.5c0.4-0.7,0.9-1.3,1.5-1.6c1.1-2,2.8-3.7,4-5.6c0.7-1.1,1.1-2.5,1.9-3.6
			c0.5-0.7,1.4-1.5,1.8-2.1c0.6-1.9,2.1-3.4,4.6-3.4c3.3,0,4.9,2.6,4.8,5.1c0.1,0.7,0.1,1.4-0.2,2.1c0.1,0.3,0.1,0.6,0.1,1
			c0,0.2,0,0.3,0,0.5c0.1,0.4,0.2,0.9,0.2,1.4c0,5.6-0.1,11.2-0.2,16.7C377.5,209.6,377.5,209.9,377.6,210.1z"/>
		<path class="st2" d="M101.4,162.7c4.2-4.7,2.6-8.9,1.1-13.6c-2.6-7.9,1.5-16.7,8.5-20.6c7.5-4.2,16.8-3.2,22.7,2.6
			c5.9,5.7,7.2,15.2,3.1,22.6c-4,7.3-12.5,11-20.9,9C112.4,162,105.6,161.8,101.4,162.7z"/>
		<path class="st2" d="M93.4,128.9c-3.3-1.1-5.4-2.9-8.6-1.4c-5.9,2.7-12,0.5-15.7-4.8c-3.2-4.6-2.8-11.1,1-15.8
			c3.7-4.5,10.3-5.9,15.8-3.3c5.3,2.5,8.4,8.4,6.9,14.6C92,121.7,91.1,124.9,93.4,128.9z"/>
		<path class="st3" d="M107.2,64c4.7,0.1,8.6,3.9,8.5,8.6c-0.1,4.3-4,8.3-8.3,8.3c-5.7,0-8.4-2.7-8.5-8.4
			C98.9,67.4,102.3,63.9,107.2,64z"/>
		<path class="st4" d="M490.9,207c-0.4-0.1-0.9-0.2-1.3-0.4c1.6,0.4,3,1.1,4.2,2c0.9,0.3,1.7,0.8,2.5,1.4c9.9,4.9,14.5,16.4,15.1,27
			c0.1,0.6,0.1,1.2,0,1.9c-0.9,5.3-0.6,10.2-2.5,15.4c-1.5,4-4.4,8.2-7.6,11c-7.9,6.7-17.5,8.3-27.6,7.5c-0.1,0-0.3,0-0.4-0.1
			c-0.5,0-1-0.1-1.6-0.2c-7.5-2.4-15-5.5-18.7-12.8c-3.4-6.7-5.1-14.8-5.5-22.4c-0.2-0.5-0.3-1.1-0.3-1.7
			c0.2-12.4,8.9-25.2,21.3-28.4c0.6-0.2,1.2-0.2,1.7-0.2c0.2-0.1,0.3-0.1,0.5-0.1c4.4-1,9-1.7,13.5-1.2c1.6,0.2,3.4,0.4,5.2,0.9
			c-21.3-5.6-46.7,7.4-42.1,39.1c2,13.5,8.9,23.4,22.6,27c23.3,6.1,42.2-8.9,42.2-33C512.2,223.4,504.3,211.1,490.9,207z"/>
		<path class="st4" d="M378,176c0-1.4-0.1-2.7-0.2-5.2c-14.5,21.4-28.2,41.9-42.6,63.2c13.7,0,26.2-0.1,38.8,0.1
			c3.3,0,4.2-0.9,4.1-4.2C377.9,211.9,378,193.9,378,176z M377.6,210.1c0.1,3.4-0.3,6.9-0.2,10.3c0.1,2,0.4,3.9-0.1,5.9
			c0,0.1-0.1,0.2-0.1,0.3c1.2,3-0.3,7.1-4.4,7.1c-1.5,0-2.7-0.6-3.5-1.4c-0.7,0.1-1.5,0.1-2.2,0.1c-3.5,0.1-6.8,0.6-10.3,0.9
			c-3.2,0.2-6.5-0.8-9.7,0c-0.1,0-0.2,0-0.3,0.1c-0.6,0.2-1.2,0.4-2,0.4c-5.3,0-6.2-6.8-2.8-9.2c1-1.7,2.4-3.1,3.6-4.9
			c1.6-2.2,2.6-4.7,4-6.9c1.5-2.3,3.5-4.2,4.9-6.5c1.5-2.4,2.9-5,4.4-7.5c0.4-0.7,0.9-1.3,1.5-1.6c1.1-2,2.8-3.7,4-5.6
			c0.7-1.1,1.1-2.5,1.9-3.6c0.5-0.7,1.4-1.5,1.8-2.1c0.6-1.9,2.1-3.4,4.6-3.4c3.3,0,4.9,2.6,4.8,5.1c0.1,0.7,0.1,1.4-0.2,2.1
			c0.1,0.3,0.1,0.6,0.1,1c0,0.2,0,0.3,0,0.5c0.1,0.4,0.2,0.9,0.2,1.4c0,5.6-0.1,11.2-0.2,16.7C377.5,209.6,377.5,209.9,377.6,210.1z
			"/>
	</g>
</g>
</svg>
