<?xml version="1.0" encoding="utf-8"?>
<!-- Generator: Adobe Illustrator 21.1.0, SVG Export Plug-In . SVG Version: 6.00 Build 0)  -->
<svg version="1.1" id="Layer_1" xmlns="http://www.w3.org/2000/svg" xmlns:xlink="http://www.w3.org/1999/xlink" x="0px" y="0px"
	 viewBox="0 0 502.4 502.4" style="enable-background:new 0 0 502.4 502.4;" xml:space="preserve">
<style type="text/css">
	.st0{fill:#DBAB56;}
	.st1{fill:#EFB30C;}
	.st2{fill:#E5A300;}
	.st3{fill:#F7D27F;}
	.st4{fill:#EFC273;}
	.st5{fill:#EAC06C;}
	.st6{fill:#FFE0A1;}
	.st7{fill:#F9E310;}
	.st8{fill:#F7C011;}
</style>
<path class="st0" d="M-700.9,518c-134.4,0-244-109.6-244-244s109.6-244,244-244s244,109.6,244,244S-566.5,518-700.9,518z"/>
<circle class="st1" cx="-700.9" cy="259.6" r="228.8"/>
<g>
	<path class="st2" d="M-902.5,286.8C-902.5,160.4-800.1,58-673.7,58c56,0,108,20,147.2,53.6c-41.6-48.8-104-80.8-174.4-80.8
		c-126.4,0-228.8,102.4-228.8,228.8c0,70.4,31.2,132.8,80.8,174.4C-881.7,394.8-902.5,342.8-902.5,286.8z"/>
	<path class="st2" d="M-539.3,98c89.6,89.6,89.6,234.4,0,323.2c-89.6,89.6-233.6,89.6-323.2,0"/>
</g>
<path class="st3" d="M-700.9,503.6c-134.4,0-244-109.6-244-244s109.6-244,244-244s244,109.6,244,244S-566.5,503.6-700.9,503.6z
	 M-700.9,46.8c-117.6,0-213.6,96-213.6,213.6s96,213.6,213.6,213.6s213.6-96,213.6-213.6C-487.3,142-583.3,46.8-700.9,46.8z"/>
<path class="st4" d="M-456.9,259.6c0-61.6-23.2-117.6-60.8-160.8C-560.9,61.2-616.9,38-678.5,38c-40.8,0-80,10.4-113.6,28
	c28-12.8,58.4-20.8,91.2-20.8c64.8,0,122.4,28.8,161.6,74.4c45.6,39.2,74.4,96.8,74.4,161.6c0,32.8-7.2,63.2-20.8,91.2
	C-467.3,339.6-456.9,301.2-456.9,259.6z"/>
<path class="st5" d="M-921.7,282.8c0,61.6,23.2,117.6,60.8,160.8c43.2,37.6,99.2,60.8,160.8,60.8c40.8,0,80-10.4,113.6-28
	c-28,12.8-58.4,20.8-91.2,20.8c-64.8,0-122.4-28.8-161.6-74.4c-45.6-40.8-75.2-98.4-75.2-163.2c0-32.8,7.2-63.2,20.8-91.2
	C-912.1,202.8-921.7,241.2-921.7,282.8z"/>
<g>
	<path class="st6" d="M-699.3,38.8c0,0.8-0.8,1.6-1.6,1.6l0,0c-0.8,0-1.6-0.8-1.6-1.6v-16c0-0.8,0.8-1.6,1.6-1.6l0,0
		c0.8,0,1.6,0.8,1.6,1.6V38.8z"/>
	<path class="st6" d="M-699.3,497.2c0,0.8-0.8,1.6-1.6,1.6l0,0c-0.8,0-1.6-0.8-1.6-1.6v-16c0-0.8,0.8-1.6,1.6-1.6l0,0
		c0.8,0,1.6,0.8,1.6,1.6V497.2z"/>
	<path class="st6" d="M-543.3,104.4c-0.8,0.8-2.4,0.8-2.4,0l0,0c-0.8-0.8-0.8-1.6,0-2.4l11.2-11.2c0.8-0.8,2.4-0.8,2.4,0l0,0
		c0.8,0.8,0.8,2.4,0,2.4L-543.3,104.4z"/>
	<path class="st6" d="M-867.3,428.4c-0.8,0.8-2.4,0.8-2.4,0l0,0c-0.8-0.8-0.8-2.4,0-2.4l11.2-11.2c0.8-0.8,2.4-0.8,2.4,0l0,0
		c0.8,0.8,0.8,2.4,0,2.4L-867.3,428.4z"/>
	<path class="st6" d="M-479.3,262c-0.8,0-1.6-0.8-1.6-1.6l0,0c0-0.8,0.8-1.6,1.6-1.6h16c0.8,0,1.6,0.8,1.6,1.6l0,0
		c0,0.8-0.8,1.6-1.6,1.6H-479.3z"/>
	<path class="st6" d="M-937.7,262c-0.8,0-1.6-0.8-1.6-1.6l0,0c0-0.8,0.8-1.6,1.6-1.6h16c0.8,0,1.6,0.8,1.6,1.6l0,0
		c0,0.8-0.8,1.6-1.6,1.6H-937.7z"/>
	<path class="st6" d="M-545.7,418c-0.8-0.8-0.8-1.6,0-2.4l0,0c0.8-0.8,1.6-0.8,2.4,0l11.2,11.2c0.8,0.8,0.8,2.4,0,2.4l0,0
		c-0.8,0.8-2.4,0.8-2.4,0L-545.7,418z"/>
	<path class="st6" d="M-869.7,93.2c-0.8-0.8-0.8-1.6,0-2.4l0,0c0.8-0.8,2.4-0.8,2.4,0l11.2,11.2c0.8,0.8,0.8,2.4,0,2.4l0,0
		c-0.8,0.8-2.4,0.8-2.4,0L-869.7,93.2z"/>
	<path class="st6" d="M-809.7,66.8c0.8,0.8,0,2.4-0.8,2.4l0,0c-0.8,0.8-2.4,0-2.4-0.8l-8-13.6c-0.8-0.8,0-2.4,0.8-2.4l0,0
		c0.8-0.8,2.4,0,2.4,0.8L-809.7,66.8z"/>
	<path class="st6" d="M-580.9,464.4c0.8,0.8,0,2.4-0.8,2.4l0,0c-0.8,0.8-2.4,0-2.4-0.8l-8-13.6c-0.8-0.8,0-2.4,0.8-2.4l0,0
		c0.8-0.8,2.4,0,2.4,0.8L-580.9,464.4z"/>
	<path class="st6" d="M-641.7,46.8c0,0.8-1.6,1.6-2.4,1.6l0,0c-0.8,0-1.6-1.6-1.6-2.4l4-15.2c0-0.8,1.6-1.6,2.4-1.6l0,0
		c0.8,0,1.6,1.6,1.6,2.4L-641.7,46.8z"/>
	<path class="st6" d="M-760.1,489.2c0,0.8-1.6,1.6-2.4,1.6l0,0c-0.8,0-1.6-1.6-1.6-2.4l4-15.2c0-0.8,1.6-1.6,2.4-1.6l0,0
		c0.8,0,1.6,1.6,1.6,2.4L-760.1,489.2z"/>
	<path class="st6" d="M-508.1,150.8c-0.8,0.8-2.4,0-2.4-0.8l0,0c-0.8-0.8,0-2.4,0.8-2.4l13.6-8c0.8-0.8,2.4,0,2.4,0.8l0,0
		c0.8,0.8,0,2.4-0.8,2.4L-508.1,150.8z"/>
	<path class="st6" d="M-904.9,380.4c-0.8,0.8-2.4,0-2.4-0.8l0,0c-0.8-0.8,0-2.4,0.8-2.4l13.6-8c0.8-0.8,2.4,0,2.4,0.8l0,0
		c0.8,0.8,0,2.4-0.8,2.4L-904.9,380.4z"/>
	<path class="st6" d="M-487.3,318.8c-0.8,0-1.6-1.6-1.6-2.4l0,0c0-0.8,1.6-1.6,2.4-1.6l15.2,4c0.8,0,1.6,1.6,1.6,2.4l0,0
		c0,0.8-1.6,1.6-2.4,1.6L-487.3,318.8z"/>
	<path class="st6" d="M-930.5,200.4c-0.8,0-1.6-1.6-1.6-2.4l0,0c0-0.8,1.6-1.6,2.4-1.6l15.2,4c0.8,0,1.6,1.6,1.6,2.4l0,0
		c0,0.8-1.6,1.6-2.4,1.6L-930.5,200.4z"/>
	<path class="st6" d="M-891.3,147.6c0.8,0.8,1.6,1.6,0.8,2.4l0,0c-0.8,0.8-1.6,1.6-2.4,0.8l-13.6-8c-0.8-0.8-1.6-1.6-0.8-2.4l0,0
		c0.8-0.8,1.6-1.6,2.4-0.8L-891.3,147.6z"/>
	<path class="st6" d="M-494.5,376.4c0.8,0.8,1.6,1.6,0.8,2.4l0,0c-0.8,0.8-1.6,1.6-2.4,0.8l-13.6-8c-0.8-0.8-1.6-1.6-0.8-2.4l0,0
		c0.8-0.8,1.6-1.6,2.4-0.8L-494.5,376.4z"/>
	<path class="st6" d="M-756.1,45.2c0,0.8,0,2.4-1.6,2.4l0,0c-0.8,0-2.4,0-2.4-1.6l-4-15.2c0-0.8,0-2.4,1.6-2.4l0,0
		c0.8,0,2.4,0,2.4,1.6L-756.1,45.2z"/>
	<path class="st6" d="M-637.7,488.4c0,0.8,0,2.4-1.6,2.4l0,0c-0.8,0-2.4,0-2.4-1.6l-4-15.2c0-0.8,0-2.4,1.6-2.4l0,0
		c0.8,0,2.4,0,2.4,1.6L-637.7,488.4z"/>
	<path class="st6" d="M-588.9,69.2c-0.8,0.8-1.6,1.6-2.4,0.8l0,0c-0.8-0.8-1.6-1.6-0.8-2.4l8-13.6c0.8-0.8,1.6-1.6,2.4-0.8l0,0
		c0.8,0.8,1.6,1.6,0.8,2.4L-588.9,69.2z"/>
	<path class="st6" d="M-817.7,466c-0.8,0.8-1.6,1.6-2.4,0.8l0,0c-0.8-0.8-1.6-1.6-0.8-2.4l8-13.6c0.8-0.8,1.6-1.6,2.4-0.8l0,0
		c0.8,0.8,1.6,1.6,0.8,2.4L-817.7,466z"/>
	<path class="st6" d="M-486.5,204.4c-0.8,0-2.4,0-2.4-1.6l0,0c0-0.8,0-2.4,1.6-2.4l15.2-4c0.8,0,2.4,0,2.4,1.6l0,0
		c0,0.8,0,2.4-1.6,2.4L-486.5,204.4z"/>
	<path class="st6" d="M-929.7,322.8c-0.8,0-2.4,0-2.4-1.6l0,0c0-0.8,0-2.4,1.6-2.4l15.2-4c0.8,0,2.4,0,2.4,1.6l0,0
		c0,0.8,0,2.4-1.6,2.4L-929.7,322.8z"/>
</g>
<path class="st3" d="M-820.1,346.8c-0.8,0-1.6,0-2.4-0.8c-36-15.2-52.8-56.8-37.6-93.6c1.6-3.2,4.8-4.8,8-3.2s4.8,4.8,3.2,8
	c-6.4,14.4-6.4,30.4,0,44.8c5.6,14.4,16.8,26.4,32,32c3.2,1.6,4.8,4.8,3.2,8C-816.1,346-817.7,346.8-820.1,346.8z"/>
<path class="st4" d="M-849.7,303.6c-4.8-12-5.6-25.6-2.4-38.4c0-4,0.8-8,2.4-12c-0.8-1.6-1.6-2.4-3.2-3.2c-3.2-1.6-6.4,0-8,3.2
	c-1.6,3.2-2.4,6.4-3.2,9.6c-3.2,30.4,13.6,60.8,43.2,72.8c0.8,0,1.6,0.8,2.4,0.8c0.8,0,0.8,0,1.6,0l-0.8-0.8
	C-832.1,329.2-843.3,318-849.7,303.6z"/>
<path class="st3" d="M-828.9,204.4c-8.8,0-18.4,7.2-24.8,19.2c-6.4,12-1.6,15.2,3.2,22.4L-828.9,204.4z"/>
<path class="st4" d="M-828.9,204.4c4.8,7.2,4.8,19.2-0.8,31.2c-6.4,12-11.2,10.4-20,10.4L-828.9,204.4z"/>
<path class="st3" d="M-881.7,222c5.6-0.8,12,4,16.8,11.2c4.8,7.2,1.6,9.6-0.8,14.4L-881.7,222z"/>
<path class="st4" d="M-881.7,222c-3.2,4.8-2.4,12,2.4,19.2s8,5.6,13.6,5.6L-881.7,222z"/>
<path class="st3" d="M-809.7,251.6c-4.8-4.8-13.6-5.6-22.4-3.2c-9.6,3.2-8.8,7.2-9.6,13.6L-809.7,251.6z"/>
<path class="st4" d="M-809.7,251.6c-0.8,6.4-7.2,12.8-16.8,16c-9.6,3.2-11.2-0.8-16-4.8L-809.7,251.6z"/>
<path class="st3" d="M-816.9,279.6c-4-4-11.2-4.8-18.4-2.4s-7.2,5.6-8,11.2L-816.9,279.6z"/>
<path class="st4" d="M-816.9,279.6c-0.8,4.8-6.4,10.4-13.6,12.8s-8.8-0.8-12.8-4L-816.9,279.6z"/>
<path class="st3" d="M-894.5,255.6c4.8-2.4,12-1.6,18.4,2.4c6.4,4,5.6,7.2,4.8,12.8L-894.5,255.6z"/>
<path class="st4" d="M-894.5,255.6c-0.8,4.8,3.2,11.2,9.6,16c6.4,4,8.8,1.6,13.6-0.8L-894.5,255.6z"/>
<path class="st3" d="M-893.7,284.4c3.2-3.2,8.8-4.8,16-3.2c6.4,1.6,6.4,4.8,7.2,8.8L-893.7,284.4z"/>
<path class="st4" d="M-893.7,284.4c0.8,4,5.6,8.8,12.8,10.4c6.4,1.6,8-0.8,10.4-4L-893.7,284.4z"/>
<path class="st3" d="M-888.9,310c2.4-4,8.8-5.6,15.2-4.8c6.4,0.8,7.2,4,8.8,8L-888.9,310z"/>
<path class="st4" d="M-888.9,310c1.6,4,7.2,8,13.6,8.8s8-1.6,10.4-5.6L-888.9,310z"/>
<path class="st3" d="M-872.1,334c1.6-3.2,5.6-6.4,12-6.4c5.6-0.8,6.4,1.6,8,4.8L-872.1,334z"/>
<path class="st4" d="M-872.1,334c1.6,3.2,7.2,4.8,12.8,4.8c5.6-0.8,5.6-3.2,7.2-6.4L-872.1,334z"/>
<path class="st3" d="M-848.9,351.6c0-3.2,2.4-6.4,7.2-8.8c4-2.4,5.6-0.8,8,0.8L-848.9,351.6z"/>
<path class="st4" d="M-848.9,351.6c2.4,1.6,7.2,1.6,11.2-0.8s4-4,4-7.2L-848.9,351.6z"/>
<path class="st3" d="M-814.5,298.8c-4-2.4-10.4-1.6-16,1.6c-5.6,3.2-4.8,6.4-4.8,10.4L-814.5,298.8z"/>
<path class="st4" d="M-814.5,298.8c0,4.8-3.2,9.6-8.8,13.6c-5.6,3.2-8,1.6-12-0.8L-814.5,298.8z"/>
<path class="st3" d="M-808.9,314.8c-3.2-1.6-8,0-12,4s-3.2,5.6-1.6,8.8L-808.9,314.8z"/>
<path class="st4" d="M-808.9,314.8c0.8,3.2-0.8,8-4.8,12s-5.6,2.4-8.8,0.8L-808.9,314.8z"/>
<path class="st3" d="M-581.7,346.8c0.8,0,1.6,0,2.4-0.8c36-15.2,52.8-56.8,37.6-93.6c-1.6-3.2-4.8-4.8-8-3.2s-4.8,4.8-3.2,8
	c6.4,14.4,6.4,30.4,0,44.8c-5.6,14.4-16.8,26.4-32,32c-3.2,1.6-4.8,4.8-3.2,8C-585.7,346-584.1,346.8-581.7,346.8z"/>
<path class="st4" d="M-552.1,303.6c4.8-12,5.6-25.6,2.4-38.4c0-4-0.8-8-2.4-12c0.8-1.6,1.6-2.4,3.2-3.2c3.2-1.6,6.4,0,8,3.2
	c1.6,3.2,2.4,6.4,3.2,9.6c3.2,30.4-13.6,60.8-43.2,72.8c-0.8,0-1.6,0.8-2.4,0.8s-0.8,0-1.6,0l0.8-0.8
	C-569.7,329.2-558.5,318-552.1,303.6z"/>
<path class="st3" d="M-572.9,204.4c8.8,0,18.4,7.2,24.8,19.2c6.4,12,1.6,15.2-3.2,22.4L-572.9,204.4z"/>
<path class="st4" d="M-572.9,204.4c-4.8,7.2-4.8,19.2,0.8,31.2c6.4,12,11.2,10.4,20,10.4L-572.9,204.4z"/>
<path class="st3" d="M-520.1,222c-5.6-0.8-12,4-16.8,11.2s-1.6,9.6,0.8,14.4L-520.1,222z"/>
<path class="st4" d="M-520.1,222c3.2,4.8,2.4,12.8-2.4,20s-8,5.6-13.6,5.6L-520.1,222z"/>
<path class="st3" d="M-592.1,251.6c4.8-4.8,13.6-5.6,22.4-3.2c9.6,3.2,8.8,7.2,9.6,13.6L-592.1,251.6z"/>
<path class="st4" d="M-592.1,251.6c0.8,6.4,7.2,12.8,16.8,16c9.6,3.2,11.2-0.8,16-4.8L-592.1,251.6z"/>
<path class="st3" d="M-584.9,279.6c4-4,11.2-4.8,18.4-2.4c7.2,2.4,7.2,5.6,8,11.2L-584.9,279.6z"/>
<path class="st4" d="M-584.9,279.6c0.8,4.8,6.4,10.4,13.6,12.8s8.8-0.8,12.8-4L-584.9,279.6z"/>
<path class="st3" d="M-507.3,255.6c-4.8-2.4-12-1.6-18.4,2.4c-6.4,4-5.6,7.2-4.8,12.8L-507.3,255.6z"/>
<path class="st4" d="M-507.3,255.6c0.8,4.8-3.2,11.2-9.6,16c-6.4,4-8.8,1.6-13.6-0.8L-507.3,255.6z"/>
<path class="st3" d="M-508.1,284.4c-3.2-3.2-8.8-4.8-16-3.2c-6.4,1.6-6.4,4.8-7.2,8.8L-508.1,284.4z"/>
<path class="st4" d="M-508.1,284.4c-0.8,4-5.6,8.8-12.8,10.4c-6.4,1.6-8-0.8-10.4-4L-508.1,284.4z"/>
<path class="st3" d="M-512.9,310c-2.4-4-8.8-5.6-15.2-4.8c-6.4,0.8-7.2,4-8.8,8L-512.9,310z"/>
<path class="st4" d="M-512.9,310c-1.6,4-7.2,8-13.6,8.8c-6.4,0.8-8-1.6-10.4-5.6L-512.9,310z"/>
<path class="st3" d="M-529.7,334c-1.6-3.2-5.6-6.4-12-6.4c-5.6-0.8-6.4,1.6-8,4.8L-529.7,334z"/>
<path class="st4" d="M-529.7,334c-1.6,3.2-7.2,4.8-12.8,4.8c-5.6-0.8-5.6-3.2-7.2-6.4L-529.7,334z"/>
<path class="st3" d="M-552.9,351.6c0-3.2-2.4-6.4-7.2-8.8c-4-2.4-5.6-0.8-8,0.8L-552.9,351.6z"/>
<path class="st4" d="M-552.9,351.6c-2.4,1.6-7.2,1.6-11.2-0.8s-4-4-4-7.2L-552.9,351.6z"/>
<path class="st3" d="M-587.3,298.8c4-2.4,10.4-1.6,16,1.6c5.6,3.2,4.8,6.4,4.8,10.4L-587.3,298.8z"/>
<path class="st4" d="M-587.3,298.8c0,4.8,3.2,9.6,8.8,13.6c5.6,3.2,8,1.6,11.2-0.8L-587.3,298.8z"/>
<path class="st3" d="M-592.9,314.8c3.2-1.6,8,0,12,4s3.2,5.6,1.6,8.8L-592.9,314.8z"/>
<path class="st4" d="M-592.9,314.8c-0.8,3.2,0.8,8,4.8,12s5.6,2.4,8.8,0.8L-592.9,314.8z"/>
<g>
	<g>
		<g>
			<path d="M-658.6,371.3c0-5.9-4.2-10.7-9.5-10.7H-717c-5.2,0-9.5,4.8-9.5,10.7c0,5.9,4.2,10.7,9.5,10.7h48.9
				C-662.9,382-658.6,377.2-658.6,371.3z"/>
			<path d="M-711.9,392.2c-5.8,0-10.4,4.8-10.4,10.7s4.7,10.7,10.4,10.7h39.3c5.8,0,10.4-4.8,10.4-10.7c0-5.9-4.7-10.7-10.4-10.7
				H-711.9z"/>
			<path d="M-692.5,177.7c-35.8,0-64.9,31.3-64.9,69.8c0,17.4,8,34.7,15.7,51.4c7.6,16.4,14.7,31.8,14.7,46.9c0,2.3,1.8,4.2,3.9,4.2
				h61c2.2,0,3.9-1.9,3.9-4.2c0-15.7,7.6-31.9,14.9-47.6c7.7-16.4,15.6-33.3,15.6-50.7C-627.6,209-656.8,177.7-692.5,177.7z"/>
			<path d="M-768.1,186.5c-0.6-0.4-1.3-0.6-2-0.6c-0.3,0-0.7,0-1,0.1c-1,0.3-1.9,1-2.4,2l-7.8,14.6c-1.1,2-0.4,4.6,1.4,5.8l14.1,8.7
				c0.6,0.4,1.3,0.6,2,0.6c0.4,0,0.8-0.1,1.2-0.2c1.1-0.4,1.9-1.2,2.4-2.3c2-4.8,4.5-9.4,7.5-13.8c0.7-1,0.9-2.2,0.7-3.4
				c-0.2-1.2-0.9-2.2-1.9-2.8L-768.1,186.5z"/>
			<path d="M-700,168.9c0.9-0.1,1.8-0.2,2.6-0.4c1.7-0.2,3.2-0.5,4.8-0.5c1.6,0,3.1,0.2,4.8,0.5c0.9,0.1,1.7,0.3,2.6,0.4
				c0.1,0,0.3,0,0.4,0c1,0,1.9-0.4,2.6-1.1c0.8-0.8,1.3-2,1.3-3.2V147c0-2.3-1.8-4.2-3.9-4.2h-15.7c-2.2,0-3.9,1.9-3.9,4.2v17.7
				c0,1.2,0.5,2.3,1.3,3.2c0.7,0.7,1.7,1.1,2.6,1.1C-700.3,168.9-700.1,168.9-700,168.9z"/>
			<path d="M-739,184c0.3,0.1,0.5,0.1,0.8,0.1c0.8,0,1.6-0.3,2.3-0.8c4.1-3.2,8.4-5.9,12.9-8.1c1-0.5,1.8-1.4,2.1-2.6
				c0.3-1.1,0.2-2.4-0.3-3.4l-8.1-15.1c-0.7-1.4-2.1-2.1-3.4-2.1c-0.7,0-1.3,0.2-2,0.6l-13.6,8.4c-0.9,0.6-1.6,1.5-1.8,2.6
				c-0.3,1.1-0.1,2.2,0.4,3.2l8.2,15.2C-741.1,183.1-740.1,183.8-739,184z"/>
			<path d="M-611.6,188.1c-0.5-1-1.4-1.7-2.4-2c-0.3-0.1-0.7-0.1-1-0.1c-0.7,0-1.4,0.2-2,0.6l-14.1,8.8c-1,0.6-1.7,1.6-1.9,2.8
				c-0.2,1.2,0,2.4,0.7,3.4c3,4.5,5.5,9.1,7.5,13.8c0.5,1.1,1.3,1.9,2.4,2.3c0.4,0.1,0.8,0.2,1.2,0.2c0.7,0,1.4-0.2,2-0.6l14.1-8.7
				c1.9-1.2,2.5-3.8,1.4-5.8L-611.6,188.1z"/>
			<path d="M-662,175.3c4.5,2.2,8.8,4.9,12.9,8c0.7,0.5,1.5,0.8,2.3,0.8c0.3,0,0.6,0,0.8-0.1c1.1-0.3,2-1,2.6-2l8.1-15.2
				c1.1-2,0.4-4.6-1.4-5.8l-13.6-8.4c-0.6-0.4-1.3-0.6-2-0.6c-0.3,0-0.7,0-1,0.1c-1,0.3-1.9,1-2.4,2l-8.1,15.1
				c-0.6,1-0.7,2.3-0.3,3.4C-663.8,173.9-663.1,174.8-662,175.3z"/>
			<path d="M-790.6,239.7v16.9c0,2.3,1.8,4.2,3.9,4.2h16.5c1.1,0,2.2-0.5,2.9-1.4c0.7-0.9,1.1-2.1,1-3.3c-0.1-0.8-0.2-1.7-0.3-2.5
				c-0.2-1.9-0.5-3.7-0.5-5.4c0-1.7,0.2-3.4,0.4-5.2c0.1-0.9,0.2-1.9,0.3-2.8c0.1-1.2-0.2-2.4-1-3.3c-0.7-0.9-1.8-1.4-2.9-1.4h-16.5
				C-788.8,235.4-790.6,237.3-790.6,239.7z"/>
			<path d="M-598.5,235.4H-615c-1.1,0-2.2,0.5-2.9,1.4c-0.7,0.9-1.1,2.1-1,3.3c0.1,0.9,0.2,1.9,0.3,2.8c0.2,1.8,0.4,3.5,0.4,5.2
				c0,1.7-0.2,3.5-0.5,5.4c-0.1,0.8-0.2,1.7-0.3,2.5c-0.1,1.2,0.2,2.4,1,3.3c0.7,0.9,1.8,1.4,2.9,1.4h16.5c2.2,0,3.9-1.9,3.9-4.2
				v-16.9C-594.5,237.3-596.3,235.4-598.5,235.4z"/>
			<path d="M-629.8,301.6l12.8,8c0.6,0.4,1.3,0.6,2,0.6c0.3,0,0.7,0,1-0.1c1-0.3,1.9-1,2.4-2l7.8-14.6c0.5-1,0.7-2.1,0.4-3.2
				c-0.3-1.1-0.9-2-1.8-2.6l-14.2-8.8c-0.6-0.4-1.3-0.6-2-0.6c-0.4,0-0.9,0.1-1.3,0.2c-1.1,0.4-1.9,1.3-2.4,2.4
				c-1.9,5-4,10.1-6.3,15.2C-632.3,298.1-631.6,300.5-629.8,301.6z"/>
			<path d="M-762.5,278.5c-0.4-0.2-0.9-0.2-1.3-0.2c-0.7,0-1.4,0.2-2,0.6l-14.2,8.8c-0.9,0.6-1.6,1.5-1.8,2.6
				c-0.3,1.1-0.1,2.2,0.4,3.2l7.8,14.6c0.7,1.4,2.1,2.1,3.4,2.1c0.7,0,1.3-0.2,2-0.6l12.7-7.9c1.8-1.1,2.5-3.5,1.6-5.5
				c-2.3-5.2-4.4-10.3-6.3-15.2C-760.5,279.8-761.4,278.9-762.5,278.5z"/>
		</g>
	</g>
	<path class="st7" d="M-660.6,261.1c6.6-4.4,11-11.3,11-18.9v-0.7c0-13.1-12.4-23.7-27.8-24v-10.6c0-2.9-3.1-5.5-6.6-5.5
		c-3.5,0-6.6,2.5-6.6,5.5v10.6h-5.7v-10.6c0-2.9-3.1-5.5-6.6-5.5s-6.6,2.5-6.6,5.5v10.6h-15.9c-3.5,0-6.6,2.5-6.6,5.5
		c0,2.9,3.1,5.5,6.6,5.5h16.3v0.4c-0.4,0.7-0.4,1.1-0.4,1.8v64h-15.9c-3.5,0-6.6,2.5-6.6,5.5c0,2.9,3.1,5.5,6.6,5.5h15.9v12
		c0,2.9,3.1,5.5,6.6,5.5s6.6-2.5,6.6-5.5v-12h5.7v12c0,2.9,3.1,5.5,6.6,5.5c3.5,0,6.6-2.5,6.6-5.5v-12.4c15.5-0.4,27.8-10.9,27.8-24
		v-0.7C-649.6,272.4-654,265.8-660.6,261.1z M-662.4,280.8c0,7.3-7.1,13.5-16.3,13.5h-17.7v-64c0-0.7,0-1.1-0.4-1.8V228h18.1
		c8.8,0,16.3,5.8,16.3,13.5v0.7c0,7.3-7.1,13.5-16.3,13.5c-3.5,0-6.6,2.5-6.6,5.5c0,0,0,0,0,0.4l0,0c0,2.9,3.1,5.5,6.6,5.5
		c8.8,0,16.3,5.8,16.3,13.5V280.8z"/>
	<path class="st8" d="M-662.4,240v0.8c0,7.5-7.1,13.9-16.3,13.9c-3.5,0-6.6,2.6-6.6,5.6c0,0,0,0,0,0.4l0,0c0,3,3.1,5.6,6.6,5.6
		c8.8,0,16.3,6,16.3,13.9v0.8c0,7.5-7.1,13.9-16.3,13.9h-17.7v-41l-13.3,11.3v29.4h-15.9c-3.5,0-6.6,2.6-6.6,5.6s3.1,5.6,6.6,5.6
		h15.9v12.4c0,3,3.1,5.6,6.6,5.6s6.6-2.6,6.6-5.6v-12.4h5.7v12.4c0,3,3.1,5.6,6.6,5.6c3.5,0,6.6-2.6,6.6-5.6v-12.8
		c15.5-0.4,27.8-11.3,27.8-24.9v-0.8c0-7.9-4.4-15.1-11-19.6c6.6-4.5,11-11.7,11-19.6V240c0-7.2-3.5-13.6-9.3-18.1l-9.3,7.9
		C-664.6,232.4-662.4,236.2-662.4,240z"/>
</g>
</svg>
